<svg xmlns="http://www.w3.org/2000/svg" xmlns:xlink="http://www.w3.org/1999/xlink" width="1080" zoomAndPan="magnify" viewBox="0 0 810 809.999993" height="1080" preserveAspectRatio="xMidYMid meet" version="1.0"><defs><clipPath id="8e8f8ba869"><path d="M 433 489 L 545 489 L 545 699 L 433 699 Z M 433 489 " clip-rule="nonzero"/></clipPath><clipPath id="6d900b07b8"><path d="M 564.300781 502.511719 L 509.574219 710.449219 L 413.484375 685.160156 L 468.214844 477.222656 Z M 564.300781 502.511719 " clip-rule="nonzero"/></clipPath><clipPath id="6804abe709"><path d="M 536.988281 606.292969 C 552.070312 548.976562 542.789062 496.847656 516.257812 489.867188 C 489.722656 482.882812 455.984375 523.6875 440.898438 581.003906 C 425.8125 638.320312 435.09375 690.449219 461.628906 697.429688 C 488.160156 704.414062 521.902344 663.609375 536.988281 606.292969 Z M 536.988281 606.292969 " clip-rule="nonzero"/></clipPath><clipPath id="312a896177"><path d="M 126.554688 93.398438 L 683.445312 93.398438 L 683.445312 650.292969 L 126.554688 650.292969 Z M 126.554688 93.398438 " clip-rule="nonzero"/></clipPath><clipPath id="1bfc6881af"><path d="M 405 93.398438 C 251.21875 93.398438 126.554688 218.066406 126.554688 371.847656 C 126.554688 525.628906 251.21875 650.292969 405 650.292969 C 558.78125 650.292969 683.445312 525.628906 683.445312 371.847656 C 683.445312 218.066406 558.78125 93.398438 405 93.398438 Z M 405 93.398438 " clip-rule="nonzero"/></clipPath><clipPath id="ca991d1455"><path d="M 218 180 L 695 180 L 695 735.75 L 218 735.75 Z M 218 180 " clip-rule="nonzero"/></clipPath><clipPath id="513b505f31"><path d="M 13.140625 104 L 145 104 L 145 612 L 13.140625 612 Z M 13.140625 104 " clip-rule="nonzero"/></clipPath><clipPath id="d67fda8962"><path d="M 667 120 L 796.890625 120 L 796.890625 631 L 667 631 Z M 667 120 " clip-rule="nonzero"/></clipPath></defs><g clip-path="url(#8e8f8ba869)"><g clip-path="url(#6d900b07b8)"><g clip-path="url(#6804abe709)"><path fill="#433d2f" d="M 564.300781 502.511719 L 509.671875 710.074219 L 413.585938 684.785156 L 468.214844 477.222656 Z M 564.300781 502.511719 " fill-opacity="1" fill-rule="nonzero"/></g></g></g><g clip-path="url(#312a896177)"><g clip-path="url(#1bfc6881af)"><path fill="#433d2f" d="M 126.554688 93.398438 L 683.445312 93.398438 L 683.445312 650.292969 L 126.554688 650.292969 Z M 126.554688 93.398438 " fill-opacity="1" fill-rule="nonzero"/></g></g><path fill="#fadd6e" d="M 519.371094 200.253906 C 505.585938 169.527344 488.128906 140.785156 467.238281 114.320312 C 501.203125 122.410156 533.160156 137.257812 561.472656 158.160156 Z M 195.457031 524.175781 C 165.0625 482.917969 147.386719 433.3125 144.8125 382.023438 L 257.246094 382.023438 C 258.015625 406.160156 260.910156 430.203125 265.855469 453.769531 Z M 345.203125 114.328125 C 317.988281 148.757812 296.695312 186.929688 281.703125 228.308594 C 253.484375 223.894531 225.390625 217.929688 197.839844 210.53125 C 234.6875 162.015625 286.574219 128.257812 345.203125 114.328125 Z M 485.53125 234.09375 C 463.625 236.277344 441.429688 237.570312 419.3125 237.933594 L 419.3125 107.496094 C 422.046875 107.636719 424.777344 107.828125 427.492188 108.046875 C 458.027344 141.21875 482.214844 178.871094 499.464844 220.160156 Z M 419.3125 264.117188 C 431.863281 263.917969 444.433594 263.425781 456.972656 262.652344 L 419.3125 300.320312 Z M 337.609375 382.023438 L 288.28125 431.347656 C 285.621094 415.050781 284.003906 398.554688 283.441406 382.023438 Z M 384.96875 108.046875 C 387.679688 107.820312 390.402344 107.636719 393.136719 107.496094 L 393.136719 237.941406 C 364.800781 237.472656 336.375 235.492188 308.277344 232.035156 C 325.660156 186.121094 351.398438 144.496094 384.96875 108.046875 Z M 144.832031 355.847656 C 146.976562 312.390625 159.753906 270.460938 182.246094 233.390625 C 212.15625 241.789062 242.734375 248.550781 273.472656 253.527344 C 263.773438 286.796875 258.339844 321.101562 257.246094 355.847656 Z M 363.785156 355.847656 L 283.4375 355.847656 C 284.5625 322.355469 290 289.316406 299.660156 257.316406 C 330.574219 261.332031 361.914062 263.617188 393.136719 264.117188 L 393.136719 326.496094 Z M 594.25 156.339844 C 594.078125 152.65625 592.359375 149.21875 589.515625 146.867188 C 545.328125 110.351562 491.886719 88.066406 434.976562 82.417969 C 425.5625 81.484375 416.003906 81.019531 406.4375 81.011719 C 406.367188 81.011719 406.296875 81 406.226562 81 C 406.15625 81 406.085938 81.011719 406.015625 81.011719 C 396.449219 81.019531 386.886719 81.484375 377.480469 82.417969 C 290.867188 91.015625 213.644531 137.800781 165.582031 210.785156 C 165.546875 210.839844 165.515625 210.890625 165.484375 210.933594 C 134.613281 257.859375 118.289062 312.492188 118.289062 368.933594 C 118.289062 435.738281 141.6875 500.832031 184.164062 552.222656 C 186.507812 555.066406 189.949219 556.789062 193.628906 556.964844 C 193.839844 556.972656 194.042969 556.980469 194.25 556.980469 C 197.710938 556.980469 201.042969 555.605469 203.503906 553.144531 L 590.433594 166.210938 C 593.042969 163.605469 594.429688 160.019531 594.25 156.339844 " fill-opacity="1" fill-rule="nonzero"/><g clip-path="url(#ca991d1455)"><path fill="#fadd6e" d="M 556.296875 583.417969 C 555.527344 583.953125 554.824219 584.566406 554.1875 585.257812 L 458.578125 688.835938 L 458.578125 640.984375 C 458.578125 637.1875 456.929688 633.582031 454.066406 631.097656 C 451.667969 629.019531 448.621094 627.894531 445.488281 627.894531 C 444.875 627.894531 444.253906 627.941406 443.636719 628.023438 C 439.671875 628.59375 435.992188 629.039062 432.382812 629.402344 C 415.140625 631.121094 397.308594 631.121094 380.0625 629.402344 C 333.136719 624.746094 288.796875 607.636719 250.976562 579.710938 L 617 213.695312 C 619.820312 217.515625 622.523438 221.394531 625.097656 225.324219 C 653.160156 267.964844 667.984375 317.625 667.984375 368.933594 C 667.984375 454.207031 626.234375 534.386719 556.296875 583.417969 Z M 646.972656 210.945312 C 641.265625 202.253906 634.984375 193.75 628.292969 185.644531 C 625.941406 182.800781 622.503906 181.082031 618.820312 180.910156 C 615.132812 180.730469 611.554688 182.125 608.949219 184.726562 L 222.015625 571.660156 C 219.410156 574.265625 218.023438 577.851562 218.199219 581.53125 C 218.375 585.210938 220.09375 588.652344 222.9375 591.003906 C 267.121094 627.519531 320.566406 649.800781 377.472656 655.453125 C 395.570312 657.246094 414.246094 657.332031 432.402344 655.695312 L 432.402344 722.308594 C 432.402344 727.699219 435.707031 732.535156 440.722656 734.496094 C 442.273438 735.105469 443.886719 735.398438 445.484375 735.398438 C 449.066406 735.398438 452.582031 733.929688 455.105469 731.1875 L 572.484375 604.027344 C 648.699219 550.03125 694.160156 462.257812 694.160156 368.933594 C 694.160156 312.492188 677.839844 257.859375 646.972656 210.945312 " fill-opacity="1" fill-rule="nonzero"/></g><path fill="#fadd6e" d="M 406.226562 473.640625 C 391.769531 473.640625 380.050781 485.359375 380.050781 499.816406 C 380.050781 514.269531 391.769531 525.992188 406.226562 525.992188 C 420.679688 525.992188 432.402344 514.269531 432.402344 499.816406 C 432.402344 485.359375 420.679688 473.640625 406.226562 473.640625 " fill-opacity="1" fill-rule="nonzero"/><path fill="#fadd6e" d="M 484.753906 473.640625 C 470.296875 473.640625 458.578125 485.359375 458.578125 499.816406 C 458.578125 514.269531 470.296875 525.992188 484.753906 525.992188 C 499.207031 525.992188 510.929688 514.269531 510.929688 499.816406 C 510.929688 485.359375 499.207031 473.640625 484.753906 473.640625 " fill-opacity="1" fill-rule="nonzero"/><path fill="#fadd6e" d="M 563.28125 473.640625 C 548.824219 473.640625 537.105469 485.359375 537.105469 499.816406 C 537.105469 514.269531 548.824219 525.992188 563.28125 525.992188 C 577.738281 525.992188 589.457031 514.269531 589.457031 499.816406 C 589.457031 485.359375 577.738281 473.640625 563.28125 473.640625 " fill-opacity="1" fill-rule="nonzero"/><g clip-path="url(#513b505f31)"><path fill="#fadd6e" d="M 118.277344 545.726562 C 111.101562 544.832031 104.5625 549.910156 103.667969 557.085938 L 102.5625 565.925781 C 61.929688 508.671875 39.761719 439.519531 39.761719 368.933594 C 39.761719 277.429688 75.570312 191.5625 140.585938 127.164062 C 145.726562 122.074219 145.761719 113.789062 140.675781 108.652344 C 135.589844 103.519531 127.300781 103.480469 122.167969 108.570312 C 52.148438 177.921875 13.585938 270.390625 13.585938 368.933594 C 13.585938 444.554688 37.226562 518.640625 80.546875 580.125 L 69.492188 578.484375 C 62.332031 577.429688 55.6875 582.363281 54.625 589.511719 C 53.566406 596.664062 58.503906 603.316406 65.65625 604.378906 L 109.828125 610.921875 C 110.46875 611.019531 111.105469 611.0625 111.746094 611.0625 C 114.589844 611.0625 117.375 610.136719 119.664062 608.398438 C 122.46875 606.261719 124.296875 603.09375 124.730469 599.597656 L 129.640625 560.335938 C 130.535156 553.164062 125.449219 546.621094 118.277344 545.726562 " fill-opacity="1" fill-rule="nonzero"/></g><g clip-path="url(#d67fda8962)"><path fill="#fadd6e" d="M 731.027344 146.441406 C 738.253906 146.441406 744.117188 140.578125 744.117188 133.351562 C 744.117188 126.125 738.253906 120.265625 731.027344 120.265625 L 691.765625 120.265625 C 684.53125 120.265625 678.675781 126.125 678.675781 133.351562 L 678.675781 172.617188 C 678.675781 179.84375 684.53125 185.703125 691.765625 185.703125 C 698.992188 185.703125 704.851562 179.84375 704.851562 172.617188 L 704.851562 168.296875 C 747.152344 226.253906 770.292969 296.847656 770.292969 368.933594 C 770.292969 459.214844 735.304688 544.261719 671.773438 608.398438 C 666.6875 613.53125 666.726562 621.816406 671.863281 626.90625 C 674.414062 629.4375 677.742188 630.695312 681.074219 630.695312 C 684.441406 630.695312 687.816406 629.402344 690.371094 626.816406 C 758.789062 557.746094 796.46875 466.160156 796.46875 368.933594 C 796.46875 288.625 769.792969 210.019531 721.1875 146.441406 L 731.027344 146.441406 " fill-opacity="1" fill-rule="nonzero"/></g></svg>