<svg xmlns="http://www.w3.org/2000/svg" xmlns:xlink="http://www.w3.org/1999/xlink" width="1080" zoomAndPan="magnify" viewBox="0 0 810 809.999993" height="1080" preserveAspectRatio="xMidYMid meet" version="1.0"><defs><clipPath id="b60248277d"><path d="M 565 580 L 762 580 L 762 757 L 565 757 Z M 565 580 " clip-rule="nonzero"/></clipPath><clipPath id="723bf6367d"><path d="M 608.15625 549.1875 L 791.226562 703.65625 L 719.847656 788.253906 L 536.777344 633.785156 Z M 608.15625 549.1875 " clip-rule="nonzero"/></clipPath><clipPath id="9303a3221c"><path d="M 699.527344 626.285156 C 649.066406 583.707031 592.179688 568.125 572.46875 591.488281 C 552.757812 614.847656 577.6875 668.300781 628.148438 710.878906 C 678.609375 753.457031 735.496094 769.039062 755.207031 745.679688 C 774.917969 722.316406 749.988281 668.863281 699.527344 626.285156 Z M 699.527344 626.285156 " clip-rule="nonzero"/></clipPath><clipPath id="56b5d7ab0d"><path d="M 32.253906 35.175781 L 577.347656 35.175781 L 577.347656 580.265625 L 32.253906 580.265625 Z M 32.253906 35.175781 " clip-rule="nonzero"/></clipPath><clipPath id="ef4b4717d8"><path d="M 304.800781 35.175781 C 154.277344 35.175781 32.253906 157.199219 32.253906 307.722656 C 32.253906 458.246094 154.277344 580.265625 304.800781 580.265625 C 455.324219 580.265625 577.347656 458.246094 577.347656 307.722656 C 577.347656 157.199219 455.324219 35.175781 304.800781 35.175781 Z M 304.800781 35.175781 " clip-rule="nonzero"/></clipPath><clipPath id="1c65fcd44a"><path d="M 543 543 L 660 543 L 660 657 L 543 657 Z M 543 543 " clip-rule="nonzero"/></clipPath><clipPath id="f1b20d0871"><path d="M 522.09375 586.101562 L 620.445312 520.835938 L 681.644531 613.0625 L 583.292969 678.328125 Z M 522.09375 586.101562 " clip-rule="nonzero"/></clipPath><clipPath id="c1ec02345d"><path d="M 571.222656 553.5 C 544.089844 571.503906 535.792969 606.746094 552.691406 632.214844 C 569.59375 657.683594 605.289062 663.730469 632.421875 645.726562 C 659.558594 627.71875 667.851562 592.476562 650.953125 567.007812 C 634.054688 541.542969 598.355469 535.492188 571.222656 553.5 Z M 571.222656 553.5 " clip-rule="nonzero"/></clipPath><clipPath id="177edbfda7"><path d="M 515 518 L 771 518 L 771 773.523438 L 515 773.523438 Z M 515 518 " clip-rule="nonzero"/></clipPath></defs><g clip-path="url(#b60248277d)"><g clip-path="url(#723bf6367d)"><g clip-path="url(#9303a3221c)"><path fill="#433d2f" d="M 608.15625 549.1875 L 790.898438 703.378906 L 719.515625 787.976562 L 536.777344 633.785156 Z M 608.15625 549.1875 " fill-opacity="1" fill-rule="nonzero"/></g></g></g><g clip-path="url(#56b5d7ab0d)"><g clip-path="url(#ef4b4717d8)"><path fill="#433d2f" d="M 32.253906 35.175781 L 577.347656 35.175781 L 577.347656 580.265625 L 32.253906 580.265625 Z M 32.253906 35.175781 " fill-opacity="1" fill-rule="nonzero"/></g></g><g clip-path="url(#1c65fcd44a)"><g clip-path="url(#f1b20d0871)"><g clip-path="url(#c1ec02345d)"><path fill="#433d2f" d="M 522.09375 586.101562 L 620.445312 520.835938 L 681.644531 613.0625 L 583.292969 678.328125 Z M 522.09375 586.101562 " fill-opacity="1" fill-rule="nonzero"/></g></g></g><path fill="#fadd6e" d="M 304.46875 543.234375 C 241.785156 543.234375 183.046875 518.25 138.773438 473.097656 C 94.5 428.824219 69.949219 370.085938 69.949219 307.402344 C 69.949219 245.15625 94.5 185.976562 138.773438 141.703125 C 183.046875 97.429688 241.785156 72.882812 304.46875 72.882812 C 367.15625 72.882812 425.894531 97.429688 470.167969 141.703125 C 515.320312 185.976562 540.304688 244.714844 540.304688 307.402344 C 540.304688 370.085938 515.320312 428.824219 470.167969 473.097656 C 425.894531 518.25 367.15625 543.234375 304.46875 543.234375 Z M 304.46875 93.484375 C 249.675781 93.484375 194.882812 114.523438 153.238281 156.167969 C 69.949219 239.457031 69.949219 375.347656 153.238281 458.632812 C 193.566406 499.839844 247.484375 522.632812 304.46875 522.632812 C 361.457031 522.632812 415.375 499.839844 455.703125 458.632812 C 496.90625 417.867188 519.703125 364.386719 519.703125 307.402344 C 519.703125 250.414062 496.90625 196.496094 455.703125 156.167969 C 414.058594 114.523438 359.265625 93.484375 304.46875 93.484375 Z M 304.46875 93.484375 " fill-opacity="1" fill-rule="evenodd"/><path fill="#fadd6e" d="M 562.222656 575.675781 C 559.59375 575.675781 556.960938 574.359375 555.210938 572.605469 L 489.457031 506.851562 C 485.511719 502.90625 485.511719 496.332031 489.457031 492.386719 C 493.402344 488.441406 499.976562 488.441406 503.921875 492.386719 L 569.675781 558.140625 C 573.621094 562.085938 573.621094 568.660156 569.675781 572.605469 C 567.484375 574.359375 564.851562 575.675781 562.222656 575.675781 Z M 562.222656 575.675781 " fill-opacity="1" fill-rule="evenodd"/><g clip-path="url(#177edbfda7)"><path fill="#fadd6e" d="M 709.949219 773.808594 C 694.167969 773.808594 678.824219 768.113281 666.550781 757.152344 C 666.113281 756.714844 666.113281 756.714844 666.113281 756.714844 L 518.386719 608.988281 C 514.441406 605.042969 514.441406 598.46875 518.386719 594.523438 L 591.59375 521.757812 C 595.539062 517.8125 602.113281 517.8125 606.058594 521.757812 L 753.785156 669.042969 C 753.785156 669.480469 753.785156 669.480469 753.785156 669.480469 C 776.578125 694.03125 776.578125 732.167969 753.785156 756.277344 C 753.785156 756.714844 753.785156 756.714844 753.34375 757.152344 C 741.070312 768.113281 725.730469 773.808594 709.949219 773.808594 Z M 680.578125 742.25 C 697.234375 757.152344 722.660156 757.152344 739.316406 742.25 C 754.222656 725.589844 754.222656 700.167969 739.316406 683.507812 L 599.042969 543.234375 L 540.304688 601.976562 Z M 680.578125 742.25 " fill-opacity="1" fill-rule="evenodd"/></g><path fill="#fadd6e" d="M 304.46875 588.824219 C 229.511719 588.824219 158.5 559.453125 105.019531 506.851562 C 52.417969 453.375 23.046875 382.359375 23.046875 307.402344 C 23.046875 232.441406 52.417969 161.429688 105.019531 107.949219 C 158.5 55.347656 229.511719 25.976562 304.46875 25.976562 C 379.429688 25.976562 450.441406 55.347656 503.921875 107.949219 C 556.523438 161.429688 585.894531 232.441406 585.894531 307.402344 C 585.894531 382.359375 556.523438 453.375 503.921875 506.851562 C 450.441406 559.453125 379.429688 588.824219 304.46875 588.824219 Z M 119.484375 122.414062 C 19.101562 224.550781 19.101562 390.25 119.484375 492.386719 C 170.332031 542.359375 237.402344 567.785156 304.46875 567.785156 C 371.539062 567.785156 438.167969 542.359375 489.457031 492.386719 C 589.839844 390.25 589.839844 224.550781 489.015625 122.414062 C 387.320312 22.03125 221.621094 22.03125 119.484375 122.414062 Z M 119.484375 122.414062 " fill-opacity="1" fill-rule="evenodd"/><path fill="#fadd6e" d="M 429.402344 449.867188 L 179.539062 449.867188 C 173.839844 449.867188 169.457031 445.484375 169.457031 439.785156 C 169.457031 434.085938 173.839844 429.265625 179.539062 429.265625 L 429.402344 429.265625 C 435.101562 429.265625 439.484375 434.085938 439.484375 439.785156 C 439.484375 445.484375 435.101562 449.867188 429.402344 449.867188 Z M 429.402344 449.867188 " fill-opacity="1" fill-rule="evenodd"/><path fill="#fadd6e" d="M 238.71875 411.292969 L 200.140625 411.292969 C 194.441406 411.292969 189.621094 406.46875 189.621094 400.769531 L 189.621094 274.523438 C 189.621094 268.824219 194.441406 264.441406 200.140625 264.441406 L 238.71875 264.441406 C 244.414062 264.441406 248.800781 268.824219 248.800781 274.523438 L 248.800781 400.769531 C 248.800781 406.46875 244.414062 411.292969 238.71875 411.292969 Z M 210.222656 390.6875 L 228.195312 390.6875 L 228.195312 284.605469 L 210.222656 284.605469 Z M 210.222656 390.6875 " fill-opacity="1" fill-rule="evenodd"/><path fill="#fadd6e" d="M 323.320312 410.414062 L 284.746094 410.414062 C 279.046875 410.414062 274.664062 406.03125 274.664062 400.332031 L 274.664062 221.921875 C 274.664062 216.222656 279.046875 211.839844 284.746094 211.839844 L 323.320312 211.839844 C 329.019531 211.839844 333.402344 216.222656 333.402344 221.921875 L 333.402344 400.332031 C 333.402344 406.03125 329.019531 410.414062 323.320312 410.414062 Z M 294.828125 390.25 L 313.238281 390.25 L 313.238281 232.003906 L 294.828125 232.003906 Z M 294.828125 390.25 " fill-opacity="1" fill-rule="evenodd"/><path fill="#fadd6e" d="M 407.921875 410.851562 L 369.347656 410.851562 C 363.648438 410.851562 359.265625 406.46875 359.265625 400.769531 L 359.265625 176.773438 C 359.265625 171.074219 363.648438 166.25 369.347656 166.25 L 407.921875 166.25 C 413.621094 166.25 418.441406 171.074219 418.441406 176.773438 L 418.441406 400.769531 C 418.441406 406.46875 413.621094 410.851562 407.921875 410.851562 Z M 379.867188 390.6875 L 397.839844 390.6875 L 397.839844 186.855469 L 379.867188 186.855469 Z M 379.867188 390.6875 " fill-opacity="1" fill-rule="evenodd"/></svg>