<svg xmlns="http://www.w3.org/2000/svg" xmlns:xlink="http://www.w3.org/1999/xlink" width="1080" zoomAndPan="magnify" viewBox="0 0 810 809.999993" height="1080" preserveAspectRatio="xMidYMid meet" version="1.0"><defs><clipPath id="d26bd64d3f"><path d="M 403 518 L 742 518 L 742 601 L 403 601 Z M 403 518 " clip-rule="nonzero"/></clipPath><clipPath id="491a9b662b"><path d="M 739.183594 509.09375 L 744.175781 588.535156 L 405.617188 609.808594 L 400.625 530.367188 Z M 739.183594 509.09375 " clip-rule="nonzero"/></clipPath><clipPath id="3bf6ad58bf"><path d="M 741.679688 548.816406 C 740.300781 526.878906 663.4375 513.855469 570 519.726562 C 476.566406 525.597656 401.9375 548.140625 403.316406 570.078125 C 404.695312 592.015625 481.554688 605.039062 574.992188 599.167969 C 668.429688 593.296875 743.054688 570.753906 741.679688 548.816406 Z M 741.679688 548.816406 " clip-rule="nonzero"/></clipPath><clipPath id="ec6041d919"><path d="M 632 662 L 720 662 L 720 743 L 632 743 Z M 632 662 " clip-rule="nonzero"/></clipPath><clipPath id="c43d7d63f5"><path d="M 717.398438 659.757812 L 722.390625 739.199219 L 634.878906 744.699219 L 629.890625 665.257812 Z M 717.398438 659.757812 " clip-rule="nonzero"/></clipPath><clipPath id="f223d95045"><path d="M 719.894531 699.476562 C 718.515625 677.542969 697.816406 660.988281 673.664062 662.503906 C 649.507812 664.023438 631.046875 683.039062 632.425781 704.972656 C 633.800781 726.910156 654.5 743.464844 678.65625 741.945312 C 702.808594 740.429688 721.273438 721.414062 719.894531 699.476562 Z M 719.894531 699.476562 " clip-rule="nonzero"/></clipPath><clipPath id="295a5f9cb8"><path d="M 407 519 L 747 519 L 747 735 L 407 735 Z M 407 519 " clip-rule="nonzero"/></clipPath><clipPath id="84f423f773"><path d="M 740.019531 509.042969 L 753.488281 723.386719 L 413.554688 744.742188 L 400.085938 530.402344 Z M 740.019531 509.042969 " clip-rule="nonzero"/></clipPath><clipPath id="6117306494"><path d="M 745.914062 616.265625 C 742.195312 557.078125 663.4375 513.855469 570 519.726562 C 476.5625 525.597656 403.832031 578.339844 407.554688 637.527344 C 411.273438 696.714844 490.03125 739.9375 583.46875 734.066406 C 676.90625 728.195312 749.632812 675.457031 745.914062 616.265625 Z M 745.914062 616.265625 " clip-rule="nonzero"/></clipPath><clipPath id="9473dc0729"><path d="M 615 65 L 748 65 L 748 200 L 615 200 Z M 615 65 " clip-rule="nonzero"/></clipPath><clipPath id="149029cdb6"><path d="M 772.882812 111.988281 L 697.203125 225.441406 L 590.027344 153.949219 L 665.707031 40.496094 Z M 772.882812 111.988281 " clip-rule="nonzero"/></clipPath><clipPath id="94f27b9039"><path d="M 735.066406 168.683594 C 755.953125 137.371094 748.890625 95.984375 719.296875 76.242188 C 689.699219 56.5 648.777344 65.878906 627.890625 97.191406 C 607.003906 128.503906 614.0625 169.890625 643.660156 189.632812 C 673.253906 209.375 714.179688 199.996094 735.066406 168.683594 Z M 735.066406 168.683594 " clip-rule="nonzero"/></clipPath><clipPath id="2a7b1a76fc"><path d="M 69 436 L 315 436 L 315 743 L 69 743 Z M 69 436 " clip-rule="nonzero"/></clipPath><clipPath id="b82a52bd6e"><path d="M 347.316406 470.550781 L 268.527344 769.925781 L 36.988281 708.984375 L 115.777344 409.613281 Z M 347.316406 470.550781 " clip-rule="nonzero"/></clipPath><clipPath id="e5918247c5"><path d="M 307.976562 620.027344 C 329.703125 537.472656 295.484375 456.910156 231.546875 440.082031 C 167.609375 423.253906 98.164062 476.535156 76.4375 559.085938 C 54.710938 641.640625 88.929688 722.203125 152.867188 739.03125 C 216.804688 755.859375 286.25 702.578125 307.976562 620.027344 Z M 307.976562 620.027344 " clip-rule="nonzero"/></clipPath><clipPath id="7643c4489a"><path d="M 81 110 L 358 110 L 358 292 L 81 292 Z M 81 110 " clip-rule="nonzero"/></clipPath><clipPath id="1e0f441498"><path d="M 362.035156 117.253906 L 353.738281 298.125 L 76.78125 285.417969 L 85.078125 104.550781 Z M 362.035156 117.253906 " clip-rule="nonzero"/></clipPath><clipPath id="a93e8d2bbc"><path d="M 357.179688 207.65625 C 359.46875 157.710938 299.640625 114.394531 223.546875 110.902344 C 147.453125 107.410156 83.910156 145.070312 81.617188 195.015625 C 79.328125 244.960938 139.15625 288.28125 215.25 291.769531 C 291.34375 295.261719 354.886719 257.601562 357.179688 207.65625 Z M 357.179688 207.65625 " clip-rule="nonzero"/></clipPath><clipPath id="72ff897fc7"><path d="M 86 46 L 363 46 L 363 228 L 86 228 Z M 86 46 " clip-rule="nonzero"/></clipPath><clipPath id="b5443b4d77"><path d="M 367.460938 53.175781 L 359.164062 234.046875 L 82.207031 221.339844 L 90.503906 40.46875 Z M 367.460938 53.175781 " clip-rule="nonzero"/></clipPath><clipPath id="45f4be8bb5"><path d="M 362.605469 143.578125 C 364.894531 93.632812 305.066406 50.3125 228.972656 46.820312 C 152.878906 43.332031 89.335938 80.988281 87.042969 130.9375 C 84.753906 180.882812 144.582031 224.199219 220.675781 227.691406 C 296.769531 231.183594 360.3125 193.523438 362.605469 143.578125 Z M 362.605469 143.578125 " clip-rule="nonzero"/></clipPath><clipPath id="c473c31204"><path d="M 123 54 L 400 54 L 400 119 L 123 119 Z M 123 54 " clip-rule="nonzero"/></clipPath><clipPath id="1977356935"><path d="M 400.824219 61.875 L 397.953125 124.484375 L 122.339844 111.839844 L 125.210938 49.230469 Z M 400.824219 61.875 " clip-rule="nonzero"/></clipPath><clipPath id="45dc24e5b3"><path d="M 399.386719 93.179688 C 400.179688 75.890625 339.136719 59.046875 263.042969 55.554688 C 186.949219 52.0625 124.621094 63.25 123.828125 80.539062 C 123.035156 97.824219 184.078125 114.671875 260.171875 118.160156 C 336.265625 121.652344 398.59375 110.46875 399.386719 93.179688 Z M 399.386719 93.179688 " clip-rule="nonzero"/></clipPath><clipPath id="04019447bd"><path d="M 515.019531 63 L 696.078125 63 L 696.078125 339.964844 L 515.019531 339.964844 Z M 515.019531 63 " clip-rule="nonzero"/></clipPath><clipPath id="669a20438b"><path d="M 605.546875 339.257812 C 655.546875 339.257812 696.078125 277.507812 696.078125 201.332031 C 696.078125 125.160156 655.546875 63.410156 605.546875 63.410156 C 555.550781 63.410156 515.019531 125.160156 515.019531 201.332031 C 515.019531 277.507812 555.550781 339.257812 605.546875 339.257812 Z M 605.546875 339.257812 " clip-rule="nonzero"/></clipPath><clipPath id="682a5faa77"><path d="M 576.734375 86.167969 L 757.792969 86.167969 L 757.792969 363 L 576.734375 363 Z M 576.734375 86.167969 " clip-rule="nonzero"/></clipPath><clipPath id="7427a711bf"><path d="M 667.265625 362.707031 C 717.261719 362.707031 757.796875 300.957031 757.796875 224.78125 C 757.796875 148.609375 717.261719 86.855469 667.265625 86.855469 C 617.265625 86.855469 576.734375 148.609375 576.734375 224.78125 C 576.734375 300.957031 617.265625 362.707031 667.265625 362.707031 Z M 667.265625 362.707031 " clip-rule="nonzero"/></clipPath><clipPath id="750681b0ec"><path d="M 464 222 L 741 222 L 741 404 L 464 404 Z M 464 222 " clip-rule="nonzero"/></clipPath><clipPath id="d8f55d2447"><path d="M 744.882812 228.777344 L 736.585938 409.648438 L 459.628906 396.941406 L 467.925781 216.074219 Z M 744.882812 228.777344 " clip-rule="nonzero"/></clipPath><clipPath id="e661989ac6"><path d="M 740.027344 319.179688 C 742.316406 269.234375 682.488281 225.914062 606.394531 222.425781 C 530.300781 218.933594 466.757812 256.59375 464.464844 306.539062 C 462.175781 356.484375 522.003906 399.804688 598.097656 403.292969 C 674.191406 406.785156 737.734375 369.125 740.027344 319.179688 Z M 740.027344 319.179688 " clip-rule="nonzero"/></clipPath><clipPath id="d790e458ea"><path d="M 121.976562 104.578125 L 696.082031 104.578125 L 696.082031 680.617188 L 121.976562 680.617188 Z M 121.976562 104.578125 " clip-rule="nonzero"/></clipPath><clipPath id="13e243464a"><path d="M 78 376 L 303 376 L 303 611 L 78 611 Z M 78 376 " clip-rule="nonzero"/></clipPath><clipPath id="1f3eb90b64"><path d="M 328.457031 407.921875 L 268.628906 635.246094 L 53.09375 578.519531 L 112.921875 351.199219 Z M 328.457031 407.921875 " clip-rule="nonzero"/></clipPath><clipPath id="12ee089f33"><path d="M 298.550781 521.558594 C 315.070312 458.800781 280.210938 395.226562 220.691406 379.5625 C 161.171875 363.894531 99.535156 402.074219 83.015625 464.832031 C 66.5 527.589844 101.359375 591.167969 160.875 606.832031 C 220.394531 622.496094 282.035156 584.316406 298.550781 521.558594 Z M 298.550781 521.558594 " clip-rule="nonzero"/></clipPath><clipPath id="bf60457bb3"><path d="M 53.113281 41 L 766 41 L 766 743 L 53.113281 743 Z M 53.113281 41 " clip-rule="nonzero"/></clipPath></defs><g clip-path="url(#d26bd64d3f)"><g clip-path="url(#491a9b662b)"><g clip-path="url(#3bf6ad58bf)"><path fill="#433d2f" d="M 739.183594 509.09375 L 744.175781 588.535156 L 405.925781 609.789062 L 400.9375 530.347656 Z M 739.183594 509.09375 " fill-opacity="1" fill-rule="nonzero"/></g></g></g><g clip-path="url(#ec6041d919)"><g clip-path="url(#c43d7d63f5)"><g clip-path="url(#f223d95045)"><path fill="#433d2f" d="M 717.398438 659.757812 L 722.390625 739.199219 L 634.878906 744.699219 L 629.890625 665.257812 Z M 717.398438 659.757812 " fill-opacity="1" fill-rule="nonzero"/></g></g></g><g clip-path="url(#295a5f9cb8)"><g clip-path="url(#84f423f773)"><g clip-path="url(#6117306494)"><path fill="#433d2f" d="M 739.183594 509.097656 L 752.648438 723.4375 L 414.390625 744.691406 L 400.925781 530.351562 Z M 739.183594 509.097656 " fill-opacity="1" fill-rule="nonzero"/></g></g></g><g clip-path="url(#9473dc0729)"><g clip-path="url(#149029cdb6)"><g clip-path="url(#94f27b9039)"><path fill="#433d2f" d="M 772.882812 111.988281 L 697.203125 225.441406 L 590.027344 153.949219 L 665.707031 40.496094 Z M 772.882812 111.988281 " fill-opacity="1" fill-rule="nonzero"/></g></g></g><g clip-path="url(#2a7b1a76fc)"><g clip-path="url(#b82a52bd6e)"><g clip-path="url(#e5918247c5)"><path fill="#433d2f" d="M 347.316406 470.550781 L 268.527344 769.925781 L 36.988281 708.984375 L 115.777344 409.613281 Z M 347.316406 470.550781 " fill-opacity="1" fill-rule="nonzero"/></g></g></g><g clip-path="url(#7643c4489a)"><g clip-path="url(#1e0f441498)"><g clip-path="url(#a93e8d2bbc)"><path fill="#433d2f" d="M 361.328125 117.222656 L 353.03125 298.09375 L 77.488281 285.449219 L 85.785156 104.582031 Z M 361.328125 117.222656 " fill-opacity="1" fill-rule="nonzero"/></g></g></g><g clip-path="url(#72ff897fc7)"><g clip-path="url(#b5443b4d77)"><g clip-path="url(#45f4be8bb5)"><path fill="#433d2f" d="M 366.753906 53.144531 L 358.457031 234.011719 L 82.914062 221.371094 L 91.210938 40.5 Z M 366.753906 53.144531 " fill-opacity="1" fill-rule="nonzero"/></g></g></g><g clip-path="url(#c473c31204)"><g clip-path="url(#1977356935)"><g clip-path="url(#45dc24e5b3)"><path fill="#433d2f" d="M 400.824219 61.875 L 397.953125 124.484375 L 122.339844 111.839844 L 125.210938 49.230469 Z M 400.824219 61.875 " fill-opacity="1" fill-rule="nonzero"/></g></g></g><g clip-path="url(#04019447bd)"><g clip-path="url(#669a20438b)"><path fill="#433d2f" d="M 696.078125 339.257812 L 515.019531 339.257812 L 515.019531 63.425781 L 696.078125 63.425781 Z M 696.078125 339.257812 " fill-opacity="1" fill-rule="nonzero"/></g></g><g clip-path="url(#682a5faa77)"><g clip-path="url(#7427a711bf)"><path fill="#433d2f" d="M 757.796875 362.707031 L 576.734375 362.707031 L 576.734375 86.875 L 757.796875 86.875 Z M 757.796875 362.707031 " fill-opacity="1" fill-rule="nonzero"/></g></g><g clip-path="url(#750681b0ec)"><g clip-path="url(#d8f55d2447)"><g clip-path="url(#e661989ac6)"><path fill="#433d2f" d="M 744.175781 228.746094 L 735.878906 409.617188 L 460.335938 396.972656 L 468.632812 216.105469 Z M 744.175781 228.746094 " fill-opacity="1" fill-rule="nonzero"/></g></g></g><g clip-path="url(#d790e458ea)"><path fill="#433d2f" d="M 121.976562 104.578125 L 696.082031 104.578125 L 696.082031 680.929688 L 121.976562 680.929688 Z M 121.976562 104.578125 " fill-opacity="1" fill-rule="nonzero"/></g><g clip-path="url(#13e243464a)"><g clip-path="url(#1f3eb90b64)"><g clip-path="url(#12ee089f33)"><path fill="#433d2f" d="M 328.457031 407.921875 L 268.628906 635.246094 L 53.09375 578.519531 L 112.921875 351.199219 Z M 328.457031 407.921875 " fill-opacity="1" fill-rule="nonzero"/></g></g></g><g clip-path="url(#bf60457bb3)"><path fill="#fadd6e" d="M 750.296875 80.007812 C 749.019531 79.058594 747.695312 78.1875 746.320312 77.394531 C 744.945312 76.601562 743.527344 75.890625 742.066406 75.261719 C 740.605469 74.632812 739.117188 74.09375 737.59375 73.640625 C 736.070312 73.1875 734.527344 72.824219 732.960938 72.550781 C 731.394531 72.28125 729.820312 72.101562 728.234375 72.011719 C 726.648438 71.925781 725.0625 71.929688 723.476562 72.027344 C 721.890625 72.125 720.316406 72.316406 718.753906 72.597656 C 717.1875 72.882812 715.648438 73.253906 714.128906 73.71875 C 713.582031 72.074219 712.929688 70.46875 712.171875 68.910156 C 711.414062 67.351562 710.558594 65.847656 709.605469 64.402344 C 708.648438 62.957031 707.605469 61.578125 706.46875 60.269531 C 705.332031 58.957031 704.117188 57.730469 702.820312 56.578125 C 701.523438 55.429688 700.15625 54.371094 698.71875 53.398438 C 697.285156 52.429688 695.789062 51.558594 694.238281 50.785156 C 692.6875 50.011719 691.09375 49.339844 689.453125 48.777344 C 687.816406 48.214844 686.148438 47.757812 684.449219 47.414062 C 681.574219 46.914062 678.675781 46.730469 675.761719 46.855469 C 672.847656 46.984375 669.976562 47.421875 667.15625 48.167969 C 664.335938 48.914062 661.625 49.953125 659.03125 51.28125 C 656.433594 52.613281 654.007812 54.207031 651.753906 56.0625 C 650.074219 53.808594 648.160156 51.773438 646.007812 49.960938 C 643.859375 48.148438 641.535156 46.601562 639.027344 45.324219 C 636.523438 44.046875 633.90625 43.070312 631.175781 42.398438 C 628.445312 41.722656 625.675781 41.367188 622.863281 41.332031 C 620.34375 41.375 617.855469 41.675781 615.398438 42.226562 C 612.9375 42.78125 610.5625 43.574219 608.265625 44.609375 C 605.96875 45.648438 603.796875 46.902344 601.757812 48.382812 C 599.714844 49.859375 597.84375 51.527344 596.144531 53.386719 C 593.679688 51.390625 591 49.753906 588.09375 48.476562 C 585.191406 47.203125 582.171875 46.332031 579.035156 45.867188 C 577.21875 45.683594 575.394531 45.628906 573.566406 45.699219 C 571.742188 45.773438 569.929688 45.976562 568.128906 46.308594 C 566.332031 46.640625 564.566406 47.097656 562.832031 47.675781 C 561.097656 48.257812 559.417969 48.960938 557.78125 49.78125 C 556.148438 50.601562 554.582031 51.535156 553.078125 52.578125 C 551.578125 53.621094 550.160156 54.765625 548.820312 56.011719 C 547.480469 57.257812 546.238281 58.589844 545.085938 60.011719 C 543.9375 61.433594 542.894531 62.929688 541.957031 64.5 C 540.316406 67.296875 539.101562 70.273438 538.320312 73.421875 C 536.933594 79.859375 535.988281 86.363281 535.480469 92.929688 C 503.445312 92.84375 431.515625 92.667969 424.65625 92.84375 C 424.121094 92.90625 423.59375 92.902344 423.0625 92.824219 C 422.53125 92.746094 422.023438 92.597656 421.53125 92.382812 C 421.042969 92.164062 420.589844 91.886719 420.175781 91.550781 C 419.761719 91.210938 419.398438 90.824219 419.085938 90.386719 C 406.289062 78.449219 392.511719 67.78125 377.746094 58.382812 C 369.292969 53.195312 360.304688 49.214844 350.785156 46.4375 C 343.882812 44.554688 336.867188 43.335938 329.734375 42.78125 C 322.601562 42.230469 315.480469 42.351562 308.371094 43.148438 C 298.964844 43.796875 288.421875 43.5 273.824219 43.148438 C 263.882812 42.789062 251.992188 42.425781 237.121094 42.328125 L 202.824219 41.964844 C 180.46875 41.726562 158.132812 41.511719 135.816406 41.332031 C 134.234375 41.285156 132.65625 41.335938 131.078125 41.476562 C 129.5 41.617188 127.9375 41.851562 126.390625 42.175781 C 124.839844 42.503906 123.316406 42.917969 121.816406 43.425781 C 120.316406 43.929688 118.847656 44.523438 117.417969 45.203125 C 115.988281 45.878906 114.601562 46.640625 113.261719 47.484375 C 111.921875 48.324219 110.636719 49.242188 109.402344 50.238281 C 108.171875 51.230469 107 52.292969 105.894531 53.425781 C 104.785156 54.554688 103.75 55.75 102.785156 57.003906 C 101.84375 58.273438 100.980469 59.59375 100.191406 60.960938 C 99.40625 62.332031 98.703125 63.742188 98.078125 65.195312 C 97.457031 66.648438 96.921875 68.132812 96.472656 69.644531 C 96.023438 71.160156 95.664062 72.695312 95.394531 74.253906 C 95.125 75.808594 94.945312 77.378906 94.859375 78.953125 C 94.773438 80.53125 94.777344 82.109375 94.875 83.6875 C 94.972656 85.265625 95.160156 86.828125 95.441406 88.382812 C 95.71875 89.941406 96.089844 91.472656 96.546875 92.984375 L 96.546875 93.0625 C 94.902344 93.613281 93.300781 94.273438 91.742188 95.035156 C 90.183594 95.796875 88.683594 96.660156 87.238281 97.617188 C 85.792969 98.578125 84.414062 99.625 83.105469 100.765625 C 81.796875 101.90625 80.570312 103.125 79.417969 104.425781 C 78.269531 105.726562 77.210938 107.09375 76.242188 108.53125 C 75.269531 109.972656 74.398438 111.464844 73.625 113.019531 C 72.851562 114.570312 72.179688 116.167969 71.613281 117.808594 C 71.046875 119.449219 70.589844 121.117188 70.242188 122.816406 C 69.753906 125.691406 69.574219 128.585938 69.707031 131.5 C 69.839844 134.414062 70.28125 137.28125 71.027344 140.101562 C 71.777344 142.921875 72.8125 145.628906 74.144531 148.222656 C 75.472656 150.820312 77.0625 153.246094 78.914062 155.5 C 76.660156 157.171875 74.628906 159.074219 72.816406 161.214844 C 71.003906 163.355469 69.460938 165.671875 68.183594 168.167969 C 66.90625 170.664062 65.929688 173.273438 65.253906 175.992188 C 64.578125 178.714844 64.222656 181.476562 64.183594 184.28125 C 64.203125 186.808594 64.484375 189.304688 65.019531 191.773438 C 65.554688 194.242188 66.335938 196.628906 67.363281 198.9375 C 68.394531 201.246094 69.644531 203.425781 71.121094 205.476562 C 72.597656 207.527344 74.265625 209.402344 76.128906 211.109375 C 74.164062 213.566406 72.546875 216.234375 71.28125 219.113281 C 70.019531 221.992188 69.152344 224.988281 68.675781 228.097656 C 68.46875 229.921875 68.394531 231.746094 68.449219 233.582031 C 68.507812 235.414062 68.695312 237.230469 69.015625 239.039062 C 69.332031 240.84375 69.78125 242.617188 70.355469 244.355469 C 70.933594 246.097656 71.628906 247.789062 72.449219 249.429688 C 73.269531 251.070312 74.203125 252.640625 75.25 254.148438 C 76.296875 255.652344 77.445312 257.074219 78.699219 258.414062 C 79.949219 259.753906 81.292969 260.996094 82.722656 262.140625 C 84.15625 263.289062 85.660156 264.324219 87.242188 265.253906 C 90.035156 266.925781 93.015625 268.128906 96.1875 268.859375 C 98.5 269.429688 101.304688 269.953125 104.582031 270.4375 L 104.582031 300.949219 C 104.582031 334.925781 104.460938 377.1875 104.582031 382.25 C 104.691406 383.339844 104.535156 384.386719 104.101562 385.394531 C 103.671875 386.402344 103.023438 387.242188 102.160156 387.914062 C 90.199219 400.710938 79.535156 414.511719 70.167969 429.3125 C 64.953125 437.78125 60.933594 446.789062 58.113281 456.328125 C 54.507812 469.726562 53.367188 483.332031 54.691406 497.140625 L 54.789062 498.753906 C 55.503906 508.144531 55.195312 518.699219 54.789062 533.289062 C 54.515625 543.21875 54.164062 555.097656 54.035156 569.972656 L 54.035156 574.574219 C 53.660156 606.796875 53.355469 639.023438 53.113281 671.25 C 53.078125 672.832031 53.128906 674.410156 53.277344 675.984375 C 53.425781 677.5625 53.664062 679.121094 53.992188 680.671875 C 54.320312 682.21875 54.738281 683.742188 55.246094 685.238281 C 55.753906 686.738281 56.347656 688.203125 57.023438 689.628906 C 57.703125 691.058594 58.460938 692.445312 59.300781 693.785156 C 60.140625 695.125 61.054688 696.414062 62.046875 697.648438 C 63.035156 698.878906 64.09375 700.050781 65.222656 701.164062 C 66.351562 702.273438 67.539062 703.3125 68.785156 704.285156 C 70.058594 705.226562 71.378906 706.089844 72.75 706.878906 C 74.121094 707.667969 75.535156 708.371094 76.988281 708.996094 C 78.445312 709.617188 79.929688 710.152344 81.445312 710.601562 C 82.960938 711.050781 84.5 711.410156 86.058594 711.679688 C 87.617188 711.949219 89.1875 712.125 90.765625 712.210938 C 92.347656 712.296875 93.925781 712.292969 95.503906 712.195312 C 97.082031 712.09375 98.648438 711.90625 100.207031 711.625 C 101.761719 711.34375 103.296875 710.96875 104.8125 710.507812 C 105.363281 712.15625 106.015625 713.761719 106.777344 715.320312 C 107.539062 716.882812 108.398438 718.386719 109.355469 719.835938 C 110.316406 721.285156 111.363281 722.664062 112.503906 723.972656 C 113.644531 725.28125 114.863281 726.511719 116.167969 727.664062 C 117.46875 728.8125 118.839844 729.871094 120.28125 730.839844 C 121.71875 731.8125 123.21875 732.683594 124.773438 733.453125 C 126.328125 734.226562 127.929688 734.894531 129.570312 735.457031 C 131.214844 736.019531 132.886719 736.472656 134.589844 736.8125 C 137.464844 737.304688 140.355469 737.480469 143.265625 737.351562 C 146.179688 737.21875 149.042969 736.777344 151.859375 736.03125 C 154.679688 735.285156 157.382812 734.246094 159.976562 732.917969 C 162.574219 731.59375 164.996094 730.003906 167.25 728.15625 C 168.917969 730.417969 170.820312 732.460938 172.960938 734.285156 C 175.101562 736.105469 177.425781 737.65625 179.925781 738.9375 C 182.429688 740.21875 185.046875 741.195312 187.773438 741.867188 C 190.503906 742.539062 193.273438 742.890625 196.085938 742.917969 C 198.605469 742.875 201.097656 742.574219 203.554688 742.023438 C 206.015625 741.472656 208.394531 740.675781 210.691406 739.640625 C 212.988281 738.605469 215.160156 737.347656 217.203125 735.867188 C 219.242188 734.390625 221.113281 732.722656 222.816406 730.863281 C 225.28125 732.855469 227.960938 734.488281 230.863281 735.761719 C 233.761719 737.035156 236.78125 737.902344 239.914062 738.371094 C 241.734375 738.554688 243.558594 738.613281 245.382812 738.539062 C 247.210938 738.464844 249.023438 738.261719 250.824219 737.933594 C 252.621094 737.601562 254.386719 737.144531 256.121094 736.5625 C 257.855469 735.980469 259.539062 735.28125 261.175781 734.460938 C 262.808594 733.636719 264.375 732.707031 265.878906 731.664062 C 267.378906 730.617188 268.800781 729.472656 270.140625 728.226562 C 271.476562 726.984375 272.722656 725.648438 273.871094 724.226562 C 275.023438 722.804688 276.066406 721.308594 277.003906 719.738281 C 278.644531 716.9375 279.855469 713.964844 280.640625 710.816406 C 282.019531 704.339844 282.964844 697.800781 283.480469 691.199219 C 314.167969 691.417969 387.25 691.605469 394.261719 691.394531 C 394.792969 691.332031 395.324219 691.339844 395.851562 691.421875 C 396.382812 691.5 396.890625 691.648438 397.382812 691.863281 C 397.871094 692.082031 398.324219 692.355469 398.738281 692.695312 C 399.152344 693.03125 399.519531 693.417969 399.832031 693.851562 C 412.636719 705.796875 426.425781 716.46875 441.203125 725.863281 C 449.664062 731.042969 458.65625 735.027344 468.175781 737.8125 C 475.097656 739.699219 482.132812 740.917969 489.28125 741.472656 C 496.433594 742.023438 503.574219 741.898438 510.699219 741.097656 C 520.027344 740.464844 530.539062 740.757812 545.082031 741.097656 C 555.023438 741.371094 566.9375 741.703125 581.832031 741.832031 L 614.328125 742.171875 C 637.261719 742.429688 660.234375 742.644531 683.242188 742.820312 L 683.441406 742.820312 C 684.226562 742.84375 685.015625 742.839844 685.804688 742.816406 C 686.59375 742.792969 687.378906 742.742188 688.164062 742.671875 C 688.949219 742.601562 689.734375 742.507812 690.511719 742.386719 C 691.292969 742.269531 692.070312 742.128906 692.839844 741.964844 C 693.613281 741.800781 694.378906 741.613281 695.136719 741.402344 C 695.898438 741.195312 696.652344 740.960938 697.398438 740.707031 C 698.144531 740.453125 698.882812 740.175781 699.613281 739.875 C 700.339844 739.578125 701.0625 739.257812 701.773438 738.914062 C 702.484375 738.574219 703.183594 738.210938 703.871094 737.828125 C 704.5625 737.441406 705.238281 737.039062 705.902344 736.617188 C 706.570312 736.191406 707.222656 735.746094 707.859375 735.285156 C 708.496094 734.824219 709.121094 734.339844 709.730469 733.839844 C 710.34375 733.339844 710.9375 732.824219 711.515625 732.289062 C 712.09375 731.753906 712.65625 731.199219 713.203125 730.632812 C 713.75 730.0625 714.277344 729.476562 714.789062 728.875 C 715.300781 728.277344 715.792969 727.660156 716.269531 727.03125 C 716.742188 726.402344 717.199219 725.757812 717.632812 725.101562 C 718.070312 724.445312 718.488281 723.773438 718.882812 723.09375 C 719.28125 722.410156 719.65625 721.71875 720.011719 721.011719 C 720.367188 720.308594 720.699219 719.59375 721.011719 718.871094 C 721.324219 718.144531 721.613281 717.414062 721.882812 716.671875 C 722.152344 715.929688 722.398438 715.183594 722.621094 714.425781 C 722.847656 713.667969 723.046875 712.90625 723.226562 712.140625 C 723.40625 711.371094 723.5625 710.597656 723.695312 709.820312 C 723.824219 709.042969 723.933594 708.261719 724.019531 707.476562 C 724.105469 706.695312 724.171875 705.910156 724.210938 705.121094 C 724.25 704.332031 724.265625 703.542969 724.257812 702.757812 C 724.25 701.96875 724.21875 701.179688 724.164062 700.394531 C 724.109375 699.605469 724.027344 698.820312 723.925781 698.039062 C 723.828125 697.257812 723.703125 696.480469 723.554688 695.703125 C 723.40625 694.929688 723.234375 694.160156 723.039062 693.394531 C 722.847656 692.632812 722.628906 691.875 722.390625 691.121094 C 724.035156 690.566406 725.636719 689.910156 727.195312 689.148438 C 728.753906 688.382812 730.253906 687.523438 731.699219 686.5625 C 733.144531 685.605469 734.523438 684.554688 735.832031 683.414062 C 737.140625 682.277344 738.367188 681.058594 739.519531 679.757812 C 740.667969 678.457031 741.726562 677.089844 742.695312 675.648438 C 743.667969 674.210938 744.539062 672.714844 745.3125 671.164062 C 746.089844 669.613281 746.757812 668.015625 747.324219 666.375 C 747.890625 664.734375 748.347656 663.066406 748.695312 661.367188 C 749.199219 658.488281 749.390625 655.589844 749.269531 652.671875 C 749.144531 649.753906 748.707031 646.886719 747.960938 644.0625 C 747.214844 641.238281 746.171875 638.527344 744.835938 635.929688 C 743.5 633.335938 741.898438 630.910156 740.035156 628.660156 C 740.574219 628.269531 741.101562 627.867188 741.617188 627.445312 C 742.136719 627.027344 742.640625 626.589844 743.132812 626.144531 C 743.621094 625.695312 744.101562 625.234375 744.566406 624.757812 C 745.035156 624.285156 745.488281 623.796875 745.925781 623.296875 C 746.363281 622.796875 746.789062 622.285156 747.199219 621.761719 C 747.609375 621.238281 748.003906 620.703125 748.386719 620.15625 C 748.765625 619.609375 749.128906 619.054688 749.480469 618.488281 C 749.828125 617.921875 750.160156 617.347656 750.480469 616.761719 C 750.796875 616.175781 751.097656 615.582031 751.378906 614.980469 C 751.664062 614.378906 751.929688 613.769531 752.179688 613.152344 C 752.429688 612.535156 752.664062 611.914062 752.878906 611.285156 C 753.09375 610.65625 753.292969 610.019531 753.472656 609.378906 C 753.652344 608.738281 753.8125 608.09375 753.957031 607.445312 C 754.101562 606.792969 754.226562 606.140625 754.332031 605.484375 C 754.4375 604.828125 754.527344 604.167969 754.597656 603.507812 C 754.667969 602.84375 754.71875 602.183594 754.753906 601.515625 C 754.785156 600.851562 754.800781 600.1875 754.796875 599.523438 C 754.792969 598.855469 754.773438 598.191406 754.730469 597.527344 C 754.691406 596.863281 754.628906 596.203125 754.550781 595.542969 C 754.472656 594.878906 754.378906 594.222656 754.261719 593.566406 C 754.148438 592.910156 754.015625 592.261719 753.863281 591.613281 C 753.710938 590.964844 753.542969 590.320312 753.355469 589.683594 C 753.167969 589.042969 752.964844 588.410156 752.742188 587.785156 C 752.519531 587.15625 752.28125 586.535156 752.023438 585.921875 C 751.765625 585.308594 751.492188 584.703125 751.199219 584.105469 C 750.910156 583.507812 750.601562 582.917969 750.277344 582.335938 C 749.953125 581.753906 749.613281 581.183594 749.257812 580.621094 C 748.902344 580.058594 748.53125 579.507812 748.144531 578.964844 C 747.757812 578.421875 747.355469 577.894531 746.941406 577.375 C 746.523438 576.855469 746.09375 576.347656 745.648438 575.855469 C 745.203125 575.359375 744.746094 574.875 744.273438 574.40625 C 743.800781 573.9375 743.316406 573.480469 742.820312 573.039062 C 744.785156 570.585938 746.398438 567.917969 747.660156 565.035156 C 748.921875 562.15625 749.789062 559.160156 750.261719 556.050781 C 750.46875 554.230469 750.546875 552.402344 750.488281 550.570312 C 750.433594 548.738281 750.246094 546.917969 749.925781 545.113281 C 749.609375 543.308594 749.160156 541.535156 748.585938 539.796875 C 748.007812 538.054688 747.3125 536.363281 746.492188 534.722656 C 745.671875 533.085938 744.738281 531.511719 743.691406 530.007812 C 742.644531 528.503906 741.496094 527.082031 740.242188 525.742188 C 738.992188 524.402344 737.648438 523.160156 736.21875 522.015625 C 734.785156 520.871094 733.277344 519.835938 731.695312 518.910156 C 728.894531 517.234375 725.902344 516.027344 722.71875 515.292969 C 720.332031 514.722656 717.503906 514.195312 714.28125 513.722656 C 714.476562 484.21875 714.578125 408.902344 714.359375 401.933594 C 714.246094 400.84375 714.40625 399.792969 714.835938 398.789062 C 715.265625 397.78125 715.914062 396.941406 716.78125 396.265625 C 728.769531 383.453125 739.488281 369.648438 748.9375 354.859375 C 752.058594 349.832031 754.742188 344.582031 756.988281 339.105469 C 759.234375 333.632812 761.007812 328.007812 762.316406 322.234375 C 763.621094 316.464844 764.4375 310.625 764.769531 304.714844 C 765.097656 298.804688 764.933594 292.910156 764.28125 287.03125 L 764.179688 285.484375 C 763.546875 276.09375 763.832031 265.582031 764.179688 251.027344 C 764.457031 241.074219 764.785156 229.105469 764.914062 214.222656 L 764.914062 209.621094 C 765.238281 177.398438 765.515625 145.175781 765.75 112.953125 C 765.792969 111.378906 765.746094 109.808594 765.609375 108.238281 C 765.46875 106.671875 765.238281 105.117188 764.917969 103.574219 C 764.597656 102.03125 764.191406 100.515625 763.691406 99.023438 C 763.195312 97.527344 762.609375 96.066406 761.941406 94.640625 C 761.273438 93.21875 760.523438 91.835938 759.691406 90.496094 C 758.863281 89.160156 757.957031 87.875 756.976562 86.640625 C 755.996094 85.410156 754.949219 84.238281 753.828125 83.128906 C 752.710938 82.019531 751.535156 80.980469 750.296875 80.007812 Z M 719.300781 556.347656 C 718.789062 557.167969 718.179688 557.910156 717.46875 558.570312 C 716.761719 559.230469 715.980469 559.785156 715.125 560.238281 C 714.269531 560.6875 713.367188 561.023438 712.425781 561.238281 C 711.480469 561.449219 710.523438 561.539062 709.558594 561.5 C 694.476562 561.5 679.382812 561.3125 664.304688 561.125 L 595.871094 560.511719 C 595.011719 560.441406 594.152344 560.441406 593.296875 560.515625 C 592.4375 560.589844 591.589844 560.734375 590.757812 560.953125 C 589.925781 561.171875 589.117188 561.460938 588.332031 561.816406 C 587.546875 562.175781 586.796875 562.59375 586.085938 563.078125 C 585.375 563.5625 584.707031 564.105469 584.085938 564.703125 C 583.46875 565.300781 582.902344 565.945312 582.390625 566.640625 C 581.882812 567.335938 581.433594 568.066406 581.050781 568.839844 C 580.664062 569.609375 580.347656 570.40625 580.097656 571.230469 C 579.855469 571.980469 579.675781 572.75 579.5625 573.527344 C 579.449219 574.308594 579.398438 575.09375 579.417969 575.882812 C 579.433594 576.671875 579.515625 577.457031 579.660156 578.230469 C 579.808594 579.007812 580.019531 579.765625 580.292969 580.503906 C 580.566406 581.246094 580.902344 581.957031 581.292969 582.640625 C 581.6875 583.328125 582.132812 583.972656 582.632812 584.582031 C 583.136719 585.191406 583.683594 585.757812 584.277344 586.273438 C 584.875 586.792969 585.507812 587.257812 586.179688 587.671875 C 589.382812 589.511719 592.824219 590.410156 596.515625 590.367188 C 620.167969 590.640625 636.925781 590.367188 653.136719 590.113281 C 668.722656 589.863281 684.855469 589.609375 707.367188 589.820312 C 709.195312 589.820312 710.828125 589.820312 712.515625 589.90625 C 713.183594 589.9375 713.84375 590.03125 714.492188 590.1875 C 715.140625 590.347656 715.769531 590.566406 716.375 590.847656 C 716.980469 591.125 717.554688 591.460938 718.097656 591.851562 C 718.640625 592.242188 719.136719 592.683594 719.59375 593.171875 C 720.050781 593.660156 720.457031 594.1875 720.8125 594.753906 C 721.164062 595.320312 721.460938 595.914062 721.699219 596.539062 C 721.9375 597.160156 722.117188 597.804688 722.230469 598.460938 C 722.34375 599.121094 722.394531 599.78125 722.378906 600.449219 C 722.425781 601.121094 722.402344 601.789062 722.308594 602.457031 C 722.21875 603.121094 722.058594 603.773438 721.835938 604.40625 C 721.609375 605.039062 721.324219 605.644531 720.972656 606.21875 C 720.625 606.796875 720.222656 607.328125 719.765625 607.824219 C 719.308594 608.316406 718.804688 608.757812 718.253906 609.144531 C 717.707031 609.535156 717.125 609.867188 716.511719 610.136719 C 715.894531 610.40625 715.257812 610.613281 714.601562 610.753906 C 713.941406 610.894531 713.277344 610.96875 712.605469 610.972656 C 704.1875 611.15625 695.769531 611.039062 687.394531 610.972656 L 680.886719 610.894531 C 661.738281 610.730469 649.5625 611.058594 637.792969 611.367188 C 626.328125 611.671875 614.710938 612.003906 596.449219 611.882812 C 594.171875 611.78125 591.957031 612.105469 589.800781 612.855469 C 587.648438 613.601562 585.707031 614.722656 583.980469 616.210938 C 582.496094 618.128906 581.390625 620.246094 580.660156 622.5625 C 579.933594 624.878906 579.628906 627.246094 579.75 629.667969 C 579.808594 630.429688 579.9375 631.179688 580.132812 631.914062 C 580.328125 632.652344 580.589844 633.367188 580.914062 634.058594 C 581.238281 634.746094 581.621094 635.402344 582.0625 636.023438 C 582.507812 636.644531 583 637.222656 583.550781 637.753906 C 584.097656 638.285156 584.6875 638.761719 585.320312 639.1875 C 585.953125 639.613281 586.621094 639.976562 587.320312 640.28125 C 588.019531 640.585938 588.738281 640.824219 589.480469 641 C 590.222656 641.175781 590.976562 641.28125 591.738281 641.320312 C 594.234375 641.609375 596.742188 641.75 599.257812 641.734375 L 602.007812 641.800781 C 637.078125 642.128906 672.042969 642.460938 707.144531 642.679688 C 708.265625 642.503906 709.382812 642.503906 710.503906 642.671875 C 711.625 642.84375 712.691406 643.175781 713.710938 643.675781 C 714.726562 644.171875 715.644531 644.8125 716.464844 645.589844 C 717.289062 646.371094 717.972656 647.257812 718.523438 648.246094 C 718.945312 649 719.265625 649.796875 719.480469 650.636719 C 719.695312 651.476562 719.800781 652.328125 719.789062 653.191406 C 719.78125 654.058594 719.660156 654.910156 719.425781 655.742188 C 719.191406 656.574219 718.855469 657.367188 718.414062 658.109375 C 717.859375 658.953125 717.203125 659.714844 716.453125 660.390625 C 715.699219 661.0625 714.875 661.632812 713.976562 662.09375 C 713.078125 662.554688 712.136719 662.894531 711.148438 663.113281 C 710.164062 663.332031 709.164062 663.421875 708.15625 663.382812 C 691.160156 663.273438 674.15625 663.101562 657.148438 662.867188 L 654.582031 662.867188 C 634.515625 662.648438 614.449219 662.429688 594.367188 662.429688 C 592.214844 662.367188 590.132812 662.726562 588.121094 663.507812 C 586.113281 664.285156 584.332031 665.425781 582.785156 666.921875 C 581.433594 668.324219 580.410156 669.933594 579.710938 671.75 C 579.011719 673.5625 578.691406 675.445312 578.75 677.390625 C 578.75 677.882812 578.777344 678.378906 578.828125 678.871094 C 578.875 679.363281 578.949219 679.855469 579.050781 680.339844 C 579.148438 680.824219 579.269531 681.304688 579.417969 681.777344 C 579.566406 682.25 579.734375 682.714844 579.929688 683.171875 C 580.121094 683.628906 580.335938 684.074219 580.574219 684.507812 C 580.8125 684.941406 581.070312 685.363281 581.351562 685.773438 C 581.628906 686.183594 581.929688 686.574219 582.25 686.953125 C 582.566406 687.332031 582.90625 687.695312 583.261719 688.042969 C 583.617188 688.386719 583.988281 688.714844 584.375 689.019531 C 584.765625 689.328125 585.167969 689.617188 585.582031 689.886719 C 586 690.152344 586.429688 690.398438 586.871094 690.625 C 587.3125 690.847656 587.765625 691.050781 588.226562 691.230469 C 588.6875 691.410156 589.15625 691.566406 589.632812 691.699219 C 590.109375 691.832031 590.59375 691.941406 591.082031 692.027344 C 591.570312 692.109375 592.0625 692.171875 592.554688 692.207031 C 593.050781 692.242188 593.542969 692.253906 594.039062 692.238281 L 597.328125 692.238281 C 624.363281 692.566406 651.449219 692.824219 678.585938 693.007812 L 681.117188 693.007812 C 687.121094 693.128906 694.269531 695 694.269531 703.199219 C 694.269531 711.398438 686.847656 712.910156 680.777344 713.0625 L 622.085938 712.484375 C 583.894531 712.089844 545.691406 711.722656 507.480469 711.386719 C 503.195312 711.5 498.921875 711.359375 494.65625 710.972656 C 490.390625 710.582031 486.160156 709.941406 481.972656 709.058594 C 477.78125 708.171875 473.65625 707.042969 469.597656 705.671875 C 465.539062 704.300781 461.574219 702.695312 457.703125 700.859375 C 453.835938 699.019531 450.085938 696.964844 446.457031 694.6875 C 442.828125 692.410156 439.347656 689.925781 436.011719 687.238281 C 432.671875 684.554688 429.507812 681.679688 426.507812 678.621094 C 423.507812 675.5625 420.699219 672.339844 418.078125 668.949219 C 417.179688 667.773438 416.15625 666.722656 415.007812 665.785156 C 413.859375 664.851562 412.621094 664.066406 411.289062 663.421875 C 409.957031 662.78125 408.566406 662.300781 407.121094 661.984375 C 405.675781 661.667969 404.214844 661.523438 402.734375 661.550781 L 402.242188 661.550781 C 393.253906 661.652344 318.210938 661.464844 285.222656 661.246094 C 285.804688 644.324219 285.925781 627.75 285.945312 618.207031 C 289.246094 619.066406 292.597656 619.558594 296.007812 619.683594 C 299.191406 619.75 302.34375 619.480469 305.46875 618.867188 C 308.59375 618.257812 311.617188 617.324219 314.542969 616.066406 C 317.46875 614.808594 320.226562 613.253906 322.816406 611.40625 C 325.410156 609.554688 327.777344 607.453125 329.917969 605.097656 C 331.007812 604.03125 332.027344 602.898438 332.972656 601.699219 C 333.917969 600.5 334.78125 599.246094 335.566406 597.933594 C 336.347656 596.625 337.042969 595.269531 337.652344 593.871094 C 338.261719 592.46875 338.777344 591.035156 339.203125 589.570312 C 339.625 588.101562 339.953125 586.617188 340.183594 585.105469 C 340.417969 583.597656 340.550781 582.082031 340.585938 580.554688 C 340.621094 579.027344 340.558594 577.507812 340.398438 575.988281 C 340.238281 574.46875 339.980469 572.96875 339.628906 571.484375 C 338.816406 564.457031 338.070312 557.519531 337.4375 550.527344 C 364.59375 550.527344 391.402344 550.527344 395.402344 550.734375 C 397.066406 550.867188 398.71875 550.785156 400.363281 550.496094 C 402.003906 550.207031 403.585938 549.71875 405.105469 549.03125 C 406.625 548.339844 408.035156 547.472656 409.335938 546.429688 C 410.636719 545.382812 411.785156 544.191406 412.785156 542.855469 C 416.609375 537.671875 420.804688 532.804688 425.367188 528.257812 C 429.929688 523.707031 434.808594 519.527344 440.003906 515.71875 C 445.203125 511.910156 450.65625 508.511719 456.363281 505.53125 C 462.074219 502.546875 467.976562 500.007812 474.074219 497.921875 C 480.671875 495.734375 487.425781 494.273438 494.335938 493.535156 C 512.179688 492.003906 530.023438 490.480469 547.875 489.152344 L 587.585938 486.203125 C 589.222656 486.085938 590.847656 486.203125 592.453125 486.554688 C 594.058594 486.90625 595.582031 487.480469 597.019531 488.277344 C 597.472656 488.53125 597.898438 488.824219 598.300781 489.152344 C 598.703125 489.480469 599.078125 489.839844 599.417969 490.230469 C 599.761719 490.621094 600.066406 491.039062 600.335938 491.480469 C 600.609375 491.921875 600.839844 492.386719 601.035156 492.867188 C 601.226562 493.351562 601.378906 493.84375 601.488281 494.351562 C 601.597656 494.859375 601.660156 495.375 601.683594 495.894531 C 601.707031 496.410156 601.683594 496.929688 601.621094 497.445312 C 601.554688 497.957031 601.445312 498.464844 601.296875 498.960938 C 601.230469 499.484375 601.121094 500 600.972656 500.507812 C 600.824219 501.011719 600.632812 501.503906 600.40625 501.980469 C 600.179688 502.457031 599.914062 502.914062 599.613281 503.347656 C 599.3125 503.78125 598.976562 504.1875 598.613281 504.566406 C 598.246094 504.949219 597.851562 505.296875 597.429688 505.613281 C 597.003906 505.929688 596.5625 506.210938 596.09375 506.457031 C 595.625 506.703125 595.140625 506.90625 594.640625 507.074219 C 594.140625 507.242188 593.628906 507.371094 593.109375 507.457031 C 589.492188 508.308594 585.875 508.878906 582.269531 509.449219 L 577.886719 510.164062 C 576.71875 510.289062 575.578125 510.535156 574.460938 510.898438 C 573.347656 511.265625 572.28125 511.742188 571.269531 512.332031 C 570.253906 512.917969 569.308594 513.609375 568.441406 514.394531 C 567.570312 515.183594 566.789062 516.050781 566.101562 517 C 565.140625 518.335938 564.441406 519.796875 564 521.382812 C 563.558594 522.96875 563.40625 524.578125 563.539062 526.21875 C 563.574219 526.730469 563.636719 527.242188 563.726562 527.746094 C 563.8125 528.253906 563.925781 528.753906 564.066406 529.246094 C 564.203125 529.742188 564.367188 530.226562 564.554688 530.707031 C 564.742188 531.183594 564.953125 531.652344 565.1875 532.109375 C 565.425781 532.566406 565.683594 533.007812 565.960938 533.4375 C 566.242188 533.867188 566.542969 534.285156 566.867188 534.683594 C 567.1875 535.082031 567.53125 535.464844 567.890625 535.832031 C 568.253906 536.195312 568.628906 536.542969 569.027344 536.871094 C 569.421875 537.195312 569.835938 537.503906 570.261719 537.789062 C 570.6875 538.074219 571.128906 538.335938 571.582031 538.578125 C 572.039062 538.816406 572.503906 539.035156 572.976562 539.226562 C 573.453125 539.421875 573.9375 539.589844 574.429688 539.734375 C 574.925781 539.878906 575.421875 539.996094 575.929688 540.089844 C 576.433594 540.183594 576.941406 540.253906 577.453125 540.296875 C 577.964844 540.335938 578.476562 540.351562 578.992188 540.34375 C 579.503906 540.332031 580.015625 540.296875 580.527344 540.238281 L 581.863281 540.238281 C 623.402344 540.675781 664.828125 541.101562 706.5 541.429688 L 707.925781 541.429688 C 713.820312 541.429688 717.03125 542.878906 719.027344 546.449219 C 719.496094 547.1875 719.859375 547.96875 720.117188 548.804688 C 720.371094 549.636719 720.511719 550.488281 720.535156 551.359375 C 720.558594 552.234375 720.46875 553.09375 720.257812 553.9375 C 720.046875 554.785156 719.730469 555.589844 719.300781 556.347656 Z M 224.757812 568.238281 C 224.011719 567.976562 223.246094 567.785156 222.46875 567.65625 C 221.6875 567.527344 220.902344 567.464844 220.113281 567.472656 C 219.320312 567.480469 218.539062 567.554688 217.761719 567.695312 C 216.984375 567.839844 216.222656 568.046875 215.484375 568.320312 C 214.742188 568.59375 214.027344 568.929688 213.34375 569.328125 C 212.660156 569.726562 212.019531 570.179688 211.414062 570.6875 C 210.808594 571.195312 210.25 571.753906 209.742188 572.355469 C 209.234375 572.960938 208.78125 573.605469 208.382812 574.289062 C 206.542969 577.449219 205.640625 580.859375 205.675781 584.515625 C 205.402344 608.199219 205.675781 624.945312 205.925781 641.132812 C 206.179688 656.742188 206.441406 672.917969 206.222656 695.484375 C 206.222656 697.257812 206.222656 698.9375 206.125 700.625 C 206.070312 701.277344 205.953125 701.921875 205.777344 702.550781 C 205.601562 703.183594 205.371094 703.792969 205.082031 704.382812 C 204.792969 704.972656 204.449219 705.527344 204.058594 706.054688 C 203.664062 706.578125 203.226562 707.0625 202.742188 707.507812 C 202.261719 707.949219 201.742188 708.34375 201.183594 708.691406 C 200.628906 709.039062 200.042969 709.332031 199.433594 709.570312 C 198.820312 709.808594 198.191406 709.988281 197.546875 710.109375 C 196.902344 710.230469 196.253906 710.289062 195.597656 710.289062 C 194.941406 710.289062 194.292969 710.230469 193.648438 710.109375 C 193.003906 709.988281 192.375 709.808594 191.765625 709.570312 C 191.152344 709.332031 190.570312 709.039062 190.011719 708.691406 C 189.457031 708.34375 188.933594 707.949219 188.453125 707.507812 C 187.96875 707.0625 187.53125 706.578125 187.136719 706.054688 C 186.746094 705.527344 186.40625 704.972656 186.113281 704.382812 C 185.824219 703.792969 185.59375 703.183594 185.417969 702.550781 C 185.242188 701.921875 185.125 701.277344 185.070312 700.625 C 184.828125 692.6875 184.949219 684.742188 185.070312 676.796875 L 185.179688 668.894531 C 185.355469 649.34375 185.027344 637.550781 184.664062 625.054688 C 184.359375 613.820312 184.03125 602.324219 184.085938 584.503906 C 184.1875 582.253906 183.878906 580.066406 183.15625 577.933594 C 182.433594 575.800781 181.347656 573.875 179.898438 572.152344 C 178.144531 570.710938 176.195312 569.617188 174.054688 568.863281 C 171.910156 568.109375 169.707031 567.746094 167.4375 567.769531 C 167.074219 567.769531 166.734375 567.769531 166.40625 567.769531 C 165.644531 567.828125 164.894531 567.957031 164.152344 568.152344 C 163.414062 568.347656 162.699219 568.609375 162.007812 568.933594 C 161.3125 569.257812 160.65625 569.640625 160.03125 570.082031 C 159.40625 570.523438 158.828125 571.015625 158.292969 571.5625 C 157.753906 572.109375 157.273438 572.699219 156.84375 573.328125 C 156.410156 573.960938 156.042969 574.628906 155.730469 575.324219 C 155.417969 576.023438 155.171875 576.746094 154.992188 577.488281 C 154.808594 578.230469 154.695312 578.984375 154.644531 579.746094 C 154.308594 582.660156 154.1875 585.582031 154.273438 588.515625 L 154.273438 590.070312 L 154.21875 595.695312 C 153.910156 628.886719 153.636719 662.039062 153.398438 695.144531 C 153.296875 701.238281 151.6875 704.515625 147.839844 706.476562 C 147.074219 706.90625 146.269531 707.230469 145.421875 707.449219 C 144.570312 707.667969 143.707031 707.773438 142.832031 707.765625 C 141.953125 707.757812 141.09375 707.636719 140.246094 707.40625 C 139.402344 707.171875 138.601562 706.832031 137.84375 706.390625 C 137.011719 705.832031 136.265625 705.183594 135.601562 704.433594 C 134.941406 703.6875 134.382812 702.867188 133.929688 701.972656 C 133.476562 701.082031 133.144531 700.148438 132.933594 699.171875 C 132.722656 698.195312 132.640625 697.207031 132.683594 696.207031 C 132.683594 682.769531 132.867188 669.332031 133.054688 655.894531 L 133.667969 582.464844 C 133.695312 581.96875 133.699219 581.472656 133.675781 580.976562 C 133.652344 580.480469 133.605469 579.988281 133.535156 579.496094 C 133.460938 579.003906 133.363281 578.519531 133.246094 578.035156 C 133.125 577.554688 132.980469 577.082031 132.8125 576.613281 C 132.644531 576.144531 132.453125 575.6875 132.238281 575.238281 C 132.023438 574.792969 131.789062 574.355469 131.53125 573.929688 C 131.273438 573.503906 130.996094 573.09375 130.699219 572.699219 C 130.398438 572.300781 130.082031 571.921875 129.746094 571.554688 C 129.410156 571.191406 129.054688 570.84375 128.683594 570.511719 C 128.3125 570.183594 127.925781 569.871094 127.523438 569.582031 C 127.121094 569.289062 126.707031 569.019531 126.277344 568.769531 C 125.847656 568.519531 125.40625 568.292969 124.953125 568.085938 C 124.5 567.882812 124.039062 567.699219 123.570312 567.539062 C 123.101562 567.382812 122.625 567.246094 122.140625 567.132812 C 121.65625 567.023438 121.167969 566.933594 120.675781 566.871094 C 120.183594 566.808594 119.6875 566.769531 119.191406 566.757812 C 118.695312 566.742188 118.199219 566.753906 117.703125 566.789062 C 117.207031 566.828125 116.714844 566.886719 116.226562 566.972656 C 115.738281 567.058594 115.253906 567.167969 114.777344 567.300781 C 114.296875 567.433594 113.828125 567.589844 113.363281 567.773438 C 112.902344 567.953125 112.449219 568.15625 112.007812 568.382812 C 111.566406 568.609375 111.136719 568.855469 110.71875 569.125 C 110.300781 569.394531 109.898438 569.683594 109.507812 569.992188 C 109.121094 570.300781 108.746094 570.628906 108.390625 570.972656 C 108.035156 571.320312 107.699219 571.683594 107.378906 572.0625 C 107.058594 572.445312 106.757812 572.839844 106.476562 573.25 C 106.199219 573.660156 105.9375 574.082031 105.703125 574.515625 C 105.464844 574.953125 105.246094 575.398438 105.054688 575.855469 C 104.863281 576.316406 104.691406 576.78125 104.542969 577.253906 C 104.398438 577.730469 104.277344 578.210938 104.175781 578.695312 C 104.078125 579.183594 104.003906 579.675781 103.953125 580.167969 C 103.90625 580.664062 103.878906 581.15625 103.878906 581.652344 C 103.765625 583.074219 103.71875 584.496094 103.75 585.917969 C 103.527344 612.746094 103.308594 639.6875 102.980469 666.558594 L 102.980469 669.148438 C 103.128906 671.105469 102.902344 673.019531 102.300781 674.890625 C 101.699219 676.757812 100.769531 678.449219 99.507812 679.953125 C 98.628906 680.765625 97.625 681.375 96.5 681.777344 C 95.375 682.183594 94.214844 682.355469 93.019531 682.289062 C 91.785156 682.351562 90.585938 682.175781 89.417969 681.761719 C 88.253906 681.351562 87.210938 680.734375 86.289062 679.910156 C 85.046875 678.355469 84.144531 676.628906 83.574219 674.722656 C 83.007812 672.816406 82.816406 670.875 83 668.894531 L 83.449219 626.589844 C 83.890625 582.917969 84.253906 539.242188 84.546875 495.5625 C 84.441406 491.285156 84.585938 487.019531 84.980469 482.757812 C 85.375 478.5 86.015625 474.277344 86.902344 470.089844 C 87.792969 465.90625 88.917969 461.785156 90.285156 457.730469 C 91.65625 453.679688 93.253906 449.71875 95.085938 445.851562 C 96.914062 441.984375 98.964844 438.234375 101.230469 434.609375 C 103.5 430.980469 105.972656 427.496094 108.644531 424.15625 C 111.320312 420.820312 114.179688 417.644531 117.222656 414.640625 C 120.269531 411.636719 123.476562 408.816406 126.851562 406.1875 C 128.078125 405.28125 129.175781 404.242188 130.148438 403.066406 C 131.121094 401.894531 131.9375 400.621094 132.597656 399.246094 C 133.257812 397.871094 133.746094 396.441406 134.054688 394.949219 C 134.367188 393.457031 134.492188 391.949219 134.4375 390.425781 C 134.371094 384.5625 134.4375 351.902344 134.4375 320.480469 L 134.503906 273.054688 C 154.8125 274.152344 177.003906 274.304688 188.765625 274.273438 C 187.878906 277.59375 187.402344 280.972656 187.328125 284.410156 C 187.273438 287.515625 187.539062 290.59375 188.125 293.640625 C 188.707031 296.691406 189.601562 299.648438 190.804688 302.511719 C 192.003906 305.375 193.488281 308.082031 195.253906 310.636719 C 197.015625 313.191406 199.027344 315.539062 201.28125 317.671875 L 202.035156 318.417969 C 203.105469 319.496094 204.238281 320.5 205.4375 321.433594 C 206.636719 322.363281 207.886719 323.214844 209.195312 323.988281 C 210.503906 324.757812 211.855469 325.441406 213.25 326.039062 C 214.644531 326.636719 216.074219 327.144531 217.53125 327.558594 C 218.992188 327.972656 220.472656 328.289062 221.976562 328.511719 C 223.476562 328.738281 224.984375 328.863281 226.503906 328.894531 C 228.019531 328.921875 229.535156 328.855469 231.042969 328.691406 C 232.550781 328.527344 234.042969 328.265625 235.519531 327.910156 L 237.304688 327.714844 C 239.980469 327.40625 242.632812 327.109375 245.308594 326.824219 C 245.308594 353.425781 245.308594 379.628906 245.097656 383.628906 C 244.976562 385.289062 245.0625 386.9375 245.359375 388.574219 C 245.65625 390.210938 246.152344 391.785156 246.851562 393.296875 C 247.546875 394.804688 248.425781 396.203125 249.480469 397.492188 C 250.535156 398.777344 251.734375 399.910156 253.078125 400.890625 C 258.238281 404.753906 263.085938 408.972656 267.617188 413.554688 C 272.152344 418.132812 276.320312 423.023438 280.128906 428.222656 C 283.9375 433.425781 287.335938 438.875 290.335938 444.582031 C 293.332031 450.289062 295.890625 456.183594 298.011719 462.269531 C 300.214844 468.859375 301.613281 475.617188 302.210938 482.542969 C 303.535156 496.660156 304.730469 510.886719 305.828125 524.992188 L 307.472656 546.703125 C 308.238281 556.445312 308.894531 566.070312 309.554688 575.890625 C 309.667969 577.515625 309.542969 579.121094 309.1875 580.710938 C 308.832031 582.300781 308.257812 583.804688 307.460938 585.226562 C 307.199219 585.667969 306.902344 586.082031 306.574219 586.472656 C 306.246094 586.863281 305.886719 587.226562 305.5 587.558594 C 305.109375 587.890625 304.699219 588.1875 304.261719 588.453125 C 303.824219 588.71875 303.371094 588.945312 302.894531 589.136719 C 302.421875 589.328125 301.933594 589.480469 301.4375 589.589844 C 300.9375 589.703125 300.433594 589.773438 299.921875 589.800781 C 299.414062 589.832031 298.902344 589.816406 298.394531 589.765625 C 297.886719 589.710938 297.386719 589.613281 296.894531 589.480469 C 295.84375 589.339844 294.839844 589.039062 293.882812 588.582031 C 292.925781 588.125 292.0625 587.535156 291.292969 586.808594 C 290.523438 586.078125 289.882812 585.25 289.371094 584.324219 C 288.859375 583.394531 288.503906 582.410156 288.300781 581.371094 C 287.6875 578.476562 287.207031 575.582031 286.734375 572.6875 C 286.375 570.496094 286 568.226562 285.640625 566.113281 C 284.246094 557.464844 279.0625 552.117188 272.488281 551.863281 C 271.535156 551.703125 270.578125 551.640625 269.617188 551.679688 C 269.105469 551.71875 268.597656 551.785156 268.09375 551.878906 C 267.589844 551.96875 267.09375 552.085938 266.601562 552.230469 C 266.109375 552.371094 265.625 552.535156 265.148438 552.726562 C 264.671875 552.917969 264.207031 553.132812 263.753906 553.367188 C 263.300781 553.605469 262.859375 553.863281 262.429688 554.144531 C 262 554.425781 261.589844 554.726562 261.191406 555.050781 C 260.792969 555.371094 260.410156 555.714844 260.046875 556.074219 C 259.683594 556.433594 259.339844 556.8125 259.011719 557.207031 C 258.6875 557.601562 258.382812 558.011719 258.097656 558.4375 C 257.8125 558.863281 257.550781 559.304688 257.308594 559.753906 C 257.066406 560.207031 256.847656 560.667969 256.65625 561.144531 C 256.460938 561.617188 256.289062 562.101562 256.144531 562.589844 C 255.996094 563.082031 255.875 563.578125 255.777344 564.082031 C 255.683594 564.585938 255.613281 565.089844 255.566406 565.601562 C 255.519531 566.113281 255.5 566.621094 255.503906 567.136719 C 255.511719 567.648438 255.542969 568.15625 255.597656 568.667969 C 255.3125 593.960938 255.085938 619.257812 254.917969 644.554688 L 254.445312 695.964844 C 254.335938 702.082031 252.914062 705.238281 249.308594 707.242188 C 248.578125 707.6875 247.804688 708.027344 246.984375 708.261719 C 246.167969 708.496094 245.332031 708.621094 244.476562 708.628906 C 243.625 708.640625 242.785156 708.535156 241.960938 708.320312 C 241.136719 708.101562 240.355469 707.78125 239.617188 707.351562 C 238.804688 706.839844 238.070312 706.234375 237.417969 705.53125 C 236.765625 704.824219 236.214844 704.046875 235.765625 703.199219 C 235.316406 702.351562 234.984375 701.457031 234.769531 700.519531 C 234.554688 699.582031 234.464844 698.636719 234.5 697.675781 C 234.5 685.621094 234.621094 673.476562 234.742188 661.375 L 234.9375 637.550781 C 235.15625 619.683594 235.378906 601.808594 235.488281 583.910156 C 235.550781 583.058594 235.539062 582.203125 235.460938 581.351562 C 235.378906 580.496094 235.226562 579.65625 235.003906 578.832031 C 234.78125 578.003906 234.492188 577.199219 234.132812 576.421875 C 233.773438 575.644531 233.351562 574.902344 232.867188 574.195312 C 232.382812 573.488281 231.84375 572.828125 231.25 572.210938 C 230.652344 571.59375 230.011719 571.035156 229.320312 570.527344 C 228.628906 570.019531 227.902344 569.574219 227.132812 569.191406 C 226.367188 568.804688 225.578125 568.488281 224.757812 568.238281 Z M 99.726562 227.8125 C 100.238281 227.003906 100.847656 226.273438 101.550781 225.625 C 102.257812 224.976562 103.03125 224.425781 103.882812 223.980469 C 104.730469 223.535156 105.621094 223.207031 106.554688 222.992188 C 107.488281 222.78125 108.433594 222.691406 109.394531 222.726562 C 124.363281 222.726562 139.324219 222.914062 154.328125 223.089844 L 223.125 223.714844 C 223.984375 223.800781 224.84375 223.808594 225.707031 223.742188 C 226.570312 223.679688 227.417969 223.539062 228.257812 223.328125 C 229.09375 223.113281 229.90625 222.828125 230.695312 222.472656 C 231.484375 222.117188 232.238281 221.699219 232.953125 221.210938 C 233.667969 220.726562 234.335938 220.183594 234.953125 219.582031 C 235.574219 218.976562 236.136719 218.328125 236.644531 217.625 C 237.152344 216.925781 237.59375 216.1875 237.972656 215.410156 C 238.347656 214.632812 238.65625 213.828125 238.894531 212.996094 C 239.136719 212.246094 239.316406 211.480469 239.433594 210.699219 C 239.546875 209.917969 239.597656 209.132812 239.582031 208.34375 C 239.566406 207.554688 239.484375 206.773438 239.339844 205.996094 C 239.191406 205.222656 238.980469 204.464844 238.707031 203.722656 C 238.433594 202.984375 238.101562 202.269531 237.710938 201.585938 C 237.316406 200.902344 236.871094 200.253906 236.367188 199.644531 C 235.867188 199.035156 235.320312 198.46875 234.726562 197.953125 C 234.128906 197.433594 233.496094 196.96875 232.824219 196.554688 C 229.628906 194.699219 226.183594 193.796875 222.488281 193.859375 C 198.847656 193.5625 182.101562 193.859375 165.914062 194.113281 C 150.316406 194.351562 134.128906 194.605469 111.628906 194.40625 C 109.898438 194.40625 108.175781 194.40625 106.488281 194.308594 C 105.824219 194.28125 105.164062 194.1875 104.519531 194.03125 C 103.871094 193.871094 103.242188 193.65625 102.636719 193.378906 C 102.03125 193.097656 101.460938 192.765625 100.917969 192.375 C 100.378906 191.988281 99.878906 191.550781 99.421875 191.0625 C 98.964844 190.578125 98.5625 190.054688 98.207031 189.488281 C 97.851562 188.925781 97.554688 188.332031 97.316406 187.710938 C 97.074219 187.089844 96.898438 186.449219 96.78125 185.792969 C 96.664062 185.136719 96.613281 184.476562 96.625 183.808594 C 96.578125 183.136719 96.601562 182.46875 96.695312 181.800781 C 96.789062 181.136719 96.945312 180.484375 97.171875 179.851562 C 97.398438 179.214844 97.683594 178.613281 98.03125 178.035156 C 98.382812 177.460938 98.785156 176.925781 99.246094 176.433594 C 99.703125 175.941406 100.207031 175.5 100.753906 175.109375 C 101.304688 174.71875 101.886719 174.390625 102.503906 174.121094 C 103.117188 173.847656 103.757812 173.644531 104.414062 173.503906 C 105.074219 173.363281 105.738281 173.292969 106.410156 173.289062 C 114.839844 173.113281 123.246094 173.210938 131.621094 173.289062 L 138.140625 173.363281 C 157.332031 173.550781 169.484375 173.210938 181.257812 172.894531 C 192.722656 172.574219 204.328125 172.246094 222.566406 172.378906 C 224.84375 172.476562 227.058594 172.152344 229.214844 171.40625 C 231.371094 170.65625 233.308594 169.539062 235.039062 168.050781 C 236.519531 166.128906 237.625 164.011719 238.355469 161.695312 C 239.082031 159.382812 239.390625 157.015625 239.277344 154.589844 C 239.214844 153.835938 239.085938 153.09375 238.886719 152.359375 C 238.691406 151.628906 238.429688 150.921875 238.109375 150.238281 C 237.785156 149.550781 237.402344 148.902344 236.964844 148.285156 C 236.523438 147.667969 236.03125 147.09375 235.492188 146.566406 C 234.949219 146.035156 234.363281 145.558594 233.738281 145.136719 C 233.109375 144.710938 232.449219 144.34375 231.757812 144.039062 C 231.066406 143.730469 230.351562 143.488281 229.613281 143.308594 C 228.878906 143.128906 228.132812 143.019531 227.375 142.972656 C 224.878906 142.6875 222.371094 142.546875 219.859375 142.554688 L 211.496094 142.445312 C 178.242188 142.160156 145.175781 141.832031 111.914062 141.625 C 110.800781 141.804688 109.683594 141.808594 108.566406 141.640625 C 107.453125 141.46875 106.386719 141.132812 105.378906 140.632812 C 104.367188 140.128906 103.457031 139.484375 102.644531 138.699219 C 101.835938 137.914062 101.167969 137.019531 100.636719 136.023438 C 100.203125 135.273438 99.875 134.480469 99.652344 133.644531 C 99.425781 132.808594 99.3125 131.957031 99.3125 131.09375 C 99.3125 130.226562 99.425781 129.375 99.652344 128.539062 C 99.875 127.703125 100.203125 126.910156 100.636719 126.160156 C 101.1875 125.316406 101.839844 124.554688 102.589844 123.878906 C 103.339844 123.203125 104.164062 122.632812 105.0625 122.171875 C 105.960938 121.710938 106.902344 121.371094 107.890625 121.152344 C 108.875 120.933594 109.875 120.847656 110.882812 120.886719 C 128.738281 121 146.589844 121.21875 164.457031 121.4375 C 184.523438 121.65625 204.601562 121.875 224.667969 121.875 C 225.175781 121.90625 225.6875 121.910156 226.195312 121.886719 C 226.703125 121.867188 227.210938 121.820312 227.710938 121.746094 C 228.214844 121.671875 228.714844 121.570312 229.207031 121.445312 C 229.703125 121.320312 230.1875 121.171875 230.664062 120.996094 C 231.144531 120.820312 231.613281 120.621094 232.070312 120.398438 C 232.527344 120.175781 232.972656 119.929688 233.402344 119.660156 C 233.835938 119.394531 234.253906 119.101562 234.65625 118.789062 C 235.058594 118.480469 235.445312 118.148438 235.8125 117.796875 C 236.179688 117.445312 236.53125 117.074219 236.863281 116.6875 C 237.191406 116.300781 237.5 115.898438 237.789062 115.480469 C 238.078125 115.058594 238.347656 114.628906 238.589844 114.179688 C 238.835938 113.734375 239.058594 113.277344 239.253906 112.808594 C 239.453125 112.339844 239.625 111.859375 239.773438 111.375 C 239.921875 110.886719 240.046875 110.394531 240.144531 109.894531 C 240.242188 109.394531 240.3125 108.890625 240.359375 108.382812 C 240.40625 107.878906 240.425781 107.367188 240.417969 106.859375 C 240.398438 105.871094 240.28125 104.894531 240.070312 103.929688 C 239.859375 102.964844 239.554688 102.027344 239.15625 101.121094 C 238.761719 100.214844 238.28125 99.359375 237.714844 98.546875 C 237.152344 97.734375 236.511719 96.988281 235.800781 96.300781 C 235.089844 95.613281 234.316406 95.003906 233.484375 94.472656 C 232.652344 93.9375 231.777344 93.488281 230.855469 93.128906 C 229.9375 92.765625 228.988281 92.5 228.015625 92.324219 C 227.042969 92.148438 226.0625 92.070312 225.074219 92.085938 L 221.894531 92.085938 C 194.714844 91.757812 167.644531 91.539062 140.53125 91.320312 L 137.867188 91.320312 C 131.851562 91.199219 124.714844 89.324219 124.714844 81.113281 C 124.714844 72.90625 132.125 71.121094 138.21875 71.25 L 196.898438 71.832031 C 235.101562 72.21875 273.304688 72.585938 311.503906 72.929688 C 315.785156 72.816406 320.054688 72.953125 324.320312 73.339844 C 328.585938 73.726562 332.8125 74.363281 337 75.25 C 341.1875 76.132812 345.3125 77.257812 349.367188 78.628906 C 353.425781 79.996094 357.386719 81.597656 361.257812 83.433594 C 365.125 85.265625 368.875 87.320312 372.5 89.59375 C 376.128906 91.867188 379.609375 94.347656 382.949219 97.03125 C 386.285156 99.714844 389.453125 102.582031 392.453125 105.636719 C 395.449219 108.695312 398.261719 111.914062 400.882812 115.300781 C 401.792969 116.519531 402.835938 117.605469 404.015625 118.566406 C 405.195312 119.527344 406.472656 120.332031 407.851562 120.976562 C 409.230469 121.621094 410.664062 122.085938 412.15625 122.375 C 413.652344 122.664062 415.15625 122.769531 416.675781 122.6875 C 425.574219 122.578125 499.355469 122.773438 533.695312 122.882812 C 533.113281 139.828125 533.003906 156.453125 532.980469 166.03125 C 529.679688 165.164062 526.324219 164.671875 522.910156 164.554688 C 519.726562 164.480469 516.574219 164.75 513.445312 165.355469 C 510.320312 165.964844 507.296875 166.894531 504.371094 168.15625 C 501.445312 169.414062 498.691406 170.96875 496.101562 172.820312 C 493.511719 174.671875 491.148438 176.78125 489.011719 179.140625 C 487.917969 180.207031 486.898438 181.339844 485.953125 182.539062 C 485.007812 183.734375 484.140625 184.988281 483.355469 186.300781 C 482.574219 187.609375 481.875 188.964844 481.265625 190.363281 C 480.65625 191.765625 480.140625 193.199219 479.714844 194.664062 C 479.292969 196.132812 478.964844 197.621094 478.730469 199.128906 C 478.5 200.636719 478.367188 202.15625 478.328125 203.683594 C 478.292969 205.207031 478.355469 206.730469 478.515625 208.25 C 478.675781 209.769531 478.933594 211.269531 479.289062 212.753906 C 480.113281 219.769531 480.847656 226.71875 481.480469 233.710938 C 454.324219 233.710938 427.515625 233.710938 423.503906 233.492188 C 421.839844 233.363281 420.1875 233.445312 418.546875 233.734375 C 416.902344 234.027344 415.324219 234.515625 413.804688 235.203125 C 412.285156 235.894531 410.875 236.757812 409.574219 237.804688 C 408.273438 238.847656 407.121094 240.035156 406.121094 241.371094 C 402.296875 246.554688 398.101562 251.421875 393.539062 255.96875 C 388.980469 260.515625 384.101562 264.695312 378.90625 268.503906 C 373.710938 272.316406 368.257812 275.710938 362.550781 278.695312 C 356.839844 281.679688 350.9375 284.214844 344.84375 286.304688 C 338.242188 288.46875 331.488281 289.90625 324.578125 290.613281 C 306.726562 292.148438 288.882812 293.683594 271.03125 294.996094 L 231.3125 297.957031 C 227.96875 298.167969 224.828125 297.476562 221.886719 295.875 C 221.433594 295.617188 221.007812 295.324219 220.605469 294.996094 C 220.203125 294.667969 219.832031 294.308594 219.492188 293.917969 C 219.148438 293.527344 218.84375 293.109375 218.574219 292.667969 C 218.304688 292.222656 218.070312 291.761719 217.878906 291.28125 C 217.683594 290.796875 217.535156 290.304688 217.425781 289.796875 C 217.316406 289.289062 217.25 288.773438 217.226562 288.257812 C 217.203125 287.738281 217.226562 287.222656 217.289062 286.707031 C 217.355469 286.191406 217.460938 285.683594 217.609375 285.1875 C 217.753906 284.136719 218.054688 283.128906 218.515625 282.175781 C 218.976562 281.21875 219.578125 280.355469 220.316406 279.59375 C 221.050781 278.828125 221.890625 278.195312 222.828125 277.699219 C 223.769531 277.203125 224.761719 276.863281 225.808594 276.683594 C 229.382812 275.851562 232.953125 275.28125 236.539062 274.722656 L 241.03125 274 C 242.199219 273.871094 243.339844 273.625 244.457031 273.257812 C 245.570312 272.894531 246.636719 272.414062 247.652344 271.824219 C 248.664062 271.234375 249.609375 270.546875 250.476562 269.757812 C 251.347656 268.96875 252.125 268.101562 252.8125 267.148438 C 253.777344 265.8125 254.476562 264.355469 254.917969 262.769531 C 255.359375 261.183594 255.515625 259.570312 255.378906 257.929688 C 255.34375 257.417969 255.28125 256.910156 255.195312 256.402344 C 255.105469 255.898438 254.992188 255.398438 254.855469 254.902344 C 254.714844 254.40625 254.554688 253.921875 254.367188 253.441406 C 254.179688 252.964844 253.964844 252.496094 253.730469 252.039062 C 253.496094 251.582031 253.238281 251.140625 252.957031 250.707031 C 252.679688 250.277344 252.378906 249.863281 252.054688 249.464844 C 251.734375 249.0625 251.390625 248.679688 251.03125 248.316406 C 250.667969 247.949219 250.289062 247.601562 249.894531 247.277344 C 249.496094 246.949219 249.085938 246.644531 248.660156 246.359375 C 248.230469 246.074219 247.789062 245.808594 247.335938 245.570312 C 246.882812 245.328125 246.417969 245.113281 245.941406 244.917969 C 245.464844 244.726562 244.980469 244.558594 244.488281 244.414062 C 243.996094 244.269531 243.496094 244.148438 242.992188 244.054688 C 242.484375 243.960938 241.976562 243.894531 241.464844 243.851562 C 240.953125 243.8125 240.441406 243.796875 239.925781 243.804688 C 239.414062 243.816406 238.902344 243.851562 238.390625 243.914062 L 237.109375 243.914062 C 195.558594 243.476562 154.121094 243.035156 112.417969 242.71875 L 110.992188 242.71875 C 105.097656 242.71875 101.886719 241.261719 99.902344 237.699219 C 99.445312 236.957031 99.09375 236.171875 98.851562 235.335938 C 98.605469 234.503906 98.476562 233.648438 98.460938 232.78125 C 98.445312 231.910156 98.546875 231.054688 98.761719 230.210938 C 98.976562 229.371094 99.296875 228.570312 99.726562 227.8125 Z M 275.378906 378.160156 C 275.28125 375.203125 275.269531 349.863281 275.269531 324.261719 L 315.953125 321.34375 C 317.53125 321.191406 319.144531 321.105469 320.875 321.015625 C 324.164062 320.851562 327.78125 320.65625 332.175781 320.019531 C 340.753906 318.914062 349.15625 317.023438 357.382812 314.34375 L 358.257812 313.542969 C 364.777344 311.011719 371.105469 308.074219 377.25 304.738281 C 383.394531 301.398438 389.300781 297.683594 394.96875 293.59375 C 400.640625 289.5 406.027344 285.066406 411.132812 280.289062 C 416.238281 275.511719 421.019531 270.429688 425.476562 265.042969 C 426.484375 264.15625 427.65625 263.675781 428.996094 263.597656 C 431.253906 263.445312 447.144531 263.457031 465.546875 263.476562 L 483.664062 263.476562 L 486.117188 297.125 C 486.292969 300.609375 486.480469 304.445312 487.125 309.355469 C 488.300781 317.90625 490.214844 326.285156 492.867188 334.496094 L 493.582031 335.441406 C 496.09375 341.960938 499.015625 348.296875 502.34375 354.441406 C 505.675781 360.585938 509.386719 366.492188 513.480469 372.15625 C 517.578125 377.820312 522.019531 383.199219 526.808594 388.289062 C 531.597656 393.378906 536.695312 398.136719 542.101562 402.570312 C 542.945312 403.578125 543.421875 404.742188 543.527344 406.054688 C 543.636719 409.011719 543.636719 434.351562 543.636719 459.957031 L 502.953125 462.871094 C 501.382812 463.023438 499.785156 463.101562 498.054688 463.1875 C 494.765625 463.363281 491.136719 463.550781 486.730469 464.195312 C 478.152344 465.292969 469.75 467.175781 461.523438 469.839844 L 460.570312 470.664062 C 454.058594 473.199219 447.734375 476.136719 441.597656 479.480469 C 435.460938 482.820312 429.5625 486.539062 423.898438 490.632812 C 418.234375 494.722656 412.855469 499.160156 407.753906 503.9375 C 402.65625 508.714844 397.882812 513.796875 393.429688 519.183594 C 392.417969 520.054688 391.246094 520.535156 389.910156 520.617188 C 387.644531 520.773438 371.003906 520.75 353.359375 520.726562 L 335.253906 520.726562 L 332.789062 487.09375 C 332.613281 483.605469 332.425781 479.769531 331.792969 474.851562 C 330.613281 466.300781 328.695312 457.917969 326.039062 449.707031 L 325.324219 448.777344 C 322.808594 442.25 319.882812 435.914062 316.550781 429.765625 C 313.21875 423.617188 309.507812 417.707031 305.414062 412.035156 C 301.320312 406.363281 296.882812 400.976562 292.09375 395.875 C 287.308594 390.777344 282.214844 386.003906 276.816406 381.558594 C 275.957031 380.585938 275.480469 379.453125 275.378906 378.160156 Z M 692.078125 378.039062 C 690.847656 378.945312 689.75 379.984375 688.777344 381.15625 C 687.800781 382.332031 686.984375 383.605469 686.324219 384.980469 C 685.660156 386.351562 685.175781 387.785156 684.863281 389.277344 C 684.550781 390.769531 684.425781 392.277344 684.480469 393.800781 C 684.578125 402.65625 684.480469 477.90625 684.292969 511.183594 C 665.289062 510.171875 644.621094 509.945312 632.378906 509.945312 L 630.1875 509.945312 C 631.046875 506.621094 631.511719 503.246094 631.578125 499.816406 C 631.632812 496.714844 631.367188 493.636719 630.78125 490.589844 C 630.195312 487.539062 629.300781 484.585938 628.101562 481.722656 C 626.898438 478.863281 625.414062 476.15625 623.648438 473.601562 C 621.878906 471.050781 619.871094 468.707031 617.613281 466.574219 L 616.878906 465.839844 C 615.78125 464.75 614.613281 463.730469 613.382812 462.789062 C 612.152344 461.84375 610.863281 460.984375 609.523438 460.207031 C 608.179688 459.429688 606.792969 458.742188 605.363281 458.144531 C 603.933594 457.546875 602.472656 457.042969 600.976562 456.628906 C 599.480469 456.21875 597.964844 455.90625 596.429688 455.691406 C 594.894531 455.476562 593.351562 455.359375 591.800781 455.339844 C 590.25 455.324219 588.703125 455.40625 587.164062 455.585938 C 585.625 455.769531 584.101562 456.050781 582.597656 456.425781 C 579.574219 456.765625 576.601562 457.105469 573.601562 457.414062 C 573.601562 430.824219 573.601562 404.609375 573.820312 400.617188 C 573.941406 398.957031 573.855469 397.308594 573.558594 395.671875 C 573.261719 394.035156 572.765625 392.460938 572.066406 390.949219 C 571.367188 389.4375 570.488281 388.039062 569.433594 386.753906 C 568.375 385.46875 567.175781 384.335938 565.828125 383.355469 C 560.667969 379.496094 555.820312 375.277344 551.289062 370.695312 C 546.753906 366.113281 542.585938 361.226562 538.777344 356.023438 C 534.96875 350.824219 531.566406 345.371094 528.570312 339.667969 C 525.574219 333.960938 523.015625 328.066406 520.894531 321.980469 C 518.703125 315.398438 517.300781 308.648438 516.695312 301.738281 C 515.492188 287.609375 514.285156 273.375 513.1875 259.191406 C 512.53125 252.003906 511.984375 244.8125 511.542969 237.535156 L 511.316406 234.621094 C 510.625 225.851562 509.945312 217.191406 509.339844 208.316406 C 509.125 204.996094 509.832031 201.882812 511.457031 198.976562 C 511.71875 198.539062 512.015625 198.125 512.34375 197.738281 C 512.671875 197.347656 513.03125 196.988281 513.421875 196.65625 C 513.808594 196.324219 514.21875 196.027344 514.65625 195.761719 C 515.09375 195.496094 515.546875 195.269531 516.019531 195.078125 C 516.492188 194.890625 516.980469 194.738281 517.476562 194.625 C 517.972656 194.515625 518.476562 194.441406 518.988281 194.414062 C 519.496094 194.382812 520.003906 194.394531 520.511719 194.445312 C 521.019531 194.5 521.519531 194.59375 522.011719 194.726562 C 523.0625 194.863281 524.066406 195.160156 525.023438 195.617188 C 525.984375 196.074219 526.847656 196.664062 527.617188 197.390625 C 528.390625 198.121094 529.03125 198.949219 529.539062 199.878906 C 530.050781 200.808594 530.40625 201.792969 530.605469 202.835938 C 531.230469 205.730469 531.699219 208.621094 532.171875 211.503906 C 532.53125 213.695312 532.90625 215.976562 533.265625 218.082031 C 533.296875 218.964844 533.40625 219.84375 533.59375 220.710938 C 533.777344 221.574219 534.039062 222.417969 534.378906 223.238281 C 534.714844 224.058594 535.125 224.839844 535.601562 225.585938 C 536.082031 226.332031 536.621094 227.03125 537.226562 227.679688 C 537.828125 228.328125 538.484375 228.917969 539.195312 229.449219 C 539.902344 229.980469 540.652344 230.445312 541.445312 230.84375 C 542.238281 231.238281 543.058594 231.5625 543.910156 231.8125 C 544.761719 232.0625 545.625 232.234375 546.507812 232.328125 C 547.078125 232.421875 547.65625 232.484375 548.234375 232.507812 C 548.816406 232.535156 549.394531 232.523438 549.972656 232.480469 C 550.554688 232.4375 551.128906 232.363281 551.699219 232.25 C 552.265625 232.140625 552.828125 231.996094 553.382812 231.816406 C 553.933594 231.640625 554.472656 231.429688 555.003906 231.191406 C 555.53125 230.949219 556.042969 230.675781 556.539062 230.375 C 557.035156 230.074219 557.507812 229.742188 557.964844 229.382812 C 558.421875 229.023438 558.855469 228.640625 559.269531 228.230469 C 559.679688 227.820312 560.066406 227.390625 560.425781 226.933594 C 560.785156 226.476562 561.117188 226.003906 561.421875 225.507812 C 561.722656 225.011719 561.996094 224.503906 562.242188 223.976562 C 562.484375 223.449219 562.695312 222.910156 562.875 222.355469 C 563.054688 221.804688 563.199219 221.242188 563.3125 220.675781 C 563.425781 220.105469 563.503906 219.53125 563.546875 218.953125 C 563.59375 218.371094 563.605469 217.792969 563.582031 217.214844 C 563.558594 216.632812 563.5 216.058594 563.40625 215.484375 C 563.84375 177.21875 564.175781 138.992188 564.394531 100.800781 C 564.503906 96.601562 564.503906 92.394531 564.503906 88.261719 C 564.601562 82.144531 566.046875 78.976562 569.644531 76.984375 C 570.371094 76.539062 571.144531 76.199219 571.964844 75.964844 C 572.785156 75.730469 573.625 75.605469 574.476562 75.59375 C 575.328125 75.585938 576.167969 75.6875 576.996094 75.902344 C 577.820312 76.117188 578.601562 76.4375 579.34375 76.863281 C 580.15625 77.375 580.890625 77.984375 581.542969 78.691406 C 582.195312 79.394531 582.746094 80.171875 583.191406 81.023438 C 583.640625 81.875 583.972656 82.765625 584.183594 83.703125 C 584.398438 84.640625 584.488281 85.589844 584.449219 86.550781 C 584.449219 98.605469 584.328125 110.75 584.21875 122.851562 L 584.011719 146.699219 C 583.792969 164.5625 583.574219 182.429688 583.464844 200.316406 C 583.398438 201.167969 583.410156 202.023438 583.488281 202.875 C 583.570312 203.730469 583.722656 204.570312 583.945312 205.394531 C 584.167969 206.222656 584.460938 207.027344 584.816406 207.804688 C 585.175781 208.582031 585.597656 209.324219 586.082031 210.03125 C 586.566406 210.738281 587.105469 211.398438 587.703125 212.015625 C 588.296875 212.632812 588.941406 213.191406 589.628906 213.699219 C 590.320312 214.207031 591.050781 214.652344 591.816406 215.035156 C 592.582031 215.421875 593.375 215.738281 594.191406 215.988281 C 594.933594 216.246094 595.691406 216.441406 596.464844 216.570312 C 597.242188 216.703125 598.019531 216.765625 598.804688 216.757812 C 599.589844 216.753906 600.371094 216.683594 601.144531 216.542969 C 601.917969 216.40625 602.671875 216.203125 603.410156 215.933594 C 604.148438 215.664062 604.855469 215.335938 605.539062 214.941406 C 606.21875 214.550781 606.859375 214.105469 607.464844 213.605469 C 608.070312 213.101562 608.625 212.554688 609.136719 211.957031 C 609.644531 211.359375 610.101562 210.722656 610.5 210.046875 C 611.453125 208.492188 612.164062 206.835938 612.632812 205.074219 C 613.105469 203.3125 613.320312 201.523438 613.273438 199.703125 C 613.558594 176.015625 613.273438 159.28125 613.023438 143.082031 C 612.769531 127.488281 612.519531 111.296875 612.726562 88.996094 C 612.726562 87.976562 612.726562 86.988281 612.726562 86.003906 C 612.726562 85.179688 612.726562 84.359375 612.726562 83.59375 C 612.75 82.925781 612.84375 82.273438 612.996094 81.625 C 613.152344 80.980469 613.367188 80.355469 613.648438 79.75 C 613.925781 79.144531 614.261719 78.574219 614.652344 78.039062 C 615.042969 77.5 615.484375 77.007812 615.972656 76.554688 C 616.460938 76.105469 616.988281 75.707031 617.554688 75.359375 C 618.125 75.015625 618.71875 74.726562 619.34375 74.5 C 619.96875 74.269531 620.609375 74.105469 621.265625 74.003906 C 621.921875 73.902344 622.582031 73.863281 623.246094 73.890625 C 623.917969 73.839844 624.585938 73.859375 625.253906 73.945312 C 625.917969 74.03125 626.570312 74.183594 627.203125 74.40625 C 627.839844 74.625 628.445312 74.910156 629.023438 75.253906 C 629.597656 75.601562 630.132812 76 630.628906 76.457031 C 631.121094 76.910156 631.5625 77.414062 631.953125 77.957031 C 632.347656 78.503906 632.675781 79.085938 632.949219 79.699219 C 633.21875 80.316406 633.425781 80.953125 633.566406 81.609375 C 633.707031 82.265625 633.777344 82.929688 633.78125 83.601562 C 634.03125 91.550781 633.910156 99.496094 633.78125 107.441406 L 633.671875 115.332031 C 633.496094 134.894531 633.835938 146.6875 634.1875 159.171875 C 634.503906 170.40625 634.820312 181.914062 634.765625 199.722656 C 634.664062 201.984375 634.980469 204.1875 635.714844 206.332031 C 636.449219 208.472656 637.550781 210.40625 639.019531 212.128906 C 640.925781 213.628906 643.035156 214.75 645.34375 215.488281 C 647.65625 216.230469 650.023438 216.542969 652.445312 216.425781 C 653.207031 216.363281 653.957031 216.238281 654.699219 216.039062 C 655.4375 215.84375 656.152344 215.585938 656.847656 215.261719 C 657.539062 214.9375 658.199219 214.554688 658.824219 214.113281 C 659.449219 213.671875 660.027344 213.175781 660.566406 212.632812 C 661.101562 212.085938 661.585938 211.496094 662.015625 210.863281 C 662.445312 210.234375 662.816406 209.566406 663.128906 208.867188 C 663.441406 208.171875 663.6875 207.449219 663.871094 206.707031 C 664.054688 205.964844 664.167969 205.210938 664.214844 204.445312 C 664.539062 201.550781 664.664062 198.648438 664.589844 195.734375 L 664.589844 194.167969 L 665.574219 89.027344 C 665.574219 83 667.152344 79.746094 671.054688 77.773438 C 671.820312 77.34375 672.625 77.015625 673.476562 76.796875 C 674.324219 76.578125 675.1875 76.472656 676.066406 76.480469 C 676.941406 76.488281 677.800781 76.609375 678.648438 76.84375 C 679.492188 77.078125 680.292969 77.417969 681.050781 77.859375 C 681.882812 78.414062 682.628906 79.066406 683.292969 79.8125 C 683.957031 80.5625 684.515625 81.382812 684.96875 82.273438 C 685.417969 83.164062 685.75 84.101562 685.960938 85.078125 C 686.171875 86.054688 686.257812 87.042969 686.210938 88.042969 C 686.210938 98.816406 686.09375 109.589844 685.984375 120.363281 L 685.828125 141.636719 C 685.609375 161.691406 685.390625 181.761719 685.28125 201.847656 C 685.253906 202.347656 685.253906 202.84375 685.273438 203.339844 C 685.296875 203.835938 685.34375 204.332031 685.417969 204.820312 C 685.488281 205.3125 685.585938 205.800781 685.707031 206.285156 C 685.828125 206.765625 685.972656 207.242188 686.140625 207.707031 C 686.3125 208.175781 686.503906 208.632812 686.714844 209.082031 C 686.929688 209.53125 687.167969 209.96875 687.425781 210.394531 C 687.683594 210.816406 687.960938 211.230469 688.261719 211.625 C 688.5625 212.023438 688.878906 212.40625 689.214844 212.769531 C 689.554688 213.136719 689.910156 213.480469 690.28125 213.8125 C 690.652344 214.140625 691.039062 214.453125 691.445312 214.742188 C 691.847656 215.035156 692.265625 215.304688 692.695312 215.554688 C 693.125 215.800781 693.566406 216.03125 694.019531 216.234375 C 694.472656 216.4375 694.933594 216.621094 695.40625 216.78125 C 695.875 216.9375 696.355469 217.074219 696.839844 217.183594 C 697.324219 217.296875 697.8125 217.382812 698.304688 217.445312 C 698.800781 217.507812 699.296875 217.542969 699.792969 217.554688 C 700.289062 217.566406 700.785156 217.554688 701.28125 217.519531 C 701.777344 217.480469 702.269531 217.417969 702.757812 217.332031 C 703.25 217.246094 703.734375 217.136719 704.210938 217 C 704.691406 216.867188 705.160156 216.707031 705.625 216.523438 C 706.085938 216.34375 706.539062 216.136719 706.980469 215.910156 C 707.421875 215.683594 707.851562 215.433594 708.269531 215.164062 C 708.6875 214.894531 709.089844 214.601562 709.476562 214.292969 C 709.867188 213.980469 710.238281 213.652344 710.59375 213.304688 C 710.949219 212.957031 711.285156 212.59375 711.605469 212.210938 C 711.921875 211.828125 712.222656 211.433594 712.5 211.019531 C 712.78125 210.609375 713.039062 210.183594 713.273438 209.746094 C 713.511719 209.308594 713.726562 208.863281 713.917969 208.402344 C 714.109375 207.945312 714.277344 207.476562 714.421875 207 C 714.566406 206.527344 714.6875 206.042969 714.785156 205.558594 C 714.882812 205.070312 714.953125 204.578125 715 204.082031 C 715.050781 203.589844 715.070312 203.09375 715.070312 202.59375 C 715.191406 201.183594 715.238281 199.769531 715.210938 198.351562 C 715.433594 171.511719 715.640625 144.5625 715.96875 117.675781 L 715.96875 115.089844 C 715.824219 113.128906 716.050781 111.214844 716.652344 109.34375 C 717.253906 107.472656 718.183594 105.78125 719.441406 104.273438 C 720.328125 103.464844 721.332031 102.863281 722.460938 102.457031 C 723.585938 102.054688 724.746094 101.886719 725.941406 101.949219 C 727.167969 101.890625 728.363281 102.070312 729.519531 102.480469 C 730.675781 102.894531 731.714844 103.507812 732.628906 104.328125 C 733.867188 105.871094 734.769531 107.59375 735.339844 109.488281 C 735.90625 111.382812 736.101562 113.316406 735.914062 115.289062 L 735.5 157.550781 C 735.066406 201.222656 734.703125 244.898438 734.402344 288.585938 C 734.511719 292.867188 734.367188 297.140625 733.972656 301.402344 C 733.582031 305.667969 732.941406 309.894531 732.054688 314.082031 C 731.167969 318.273438 730.042969 322.394531 728.675781 326.453125 C 727.304688 330.511719 725.707031 334.476562 723.875 338.34375 C 722.042969 342.214844 719.992188 345.96875 717.722656 349.597656 C 715.453125 353.230469 712.980469 356.714844 710.300781 360.058594 C 707.625 363.398438 704.761719 366.574219 701.714844 369.582031 C 698.667969 372.589844 695.453125 375.410156 692.078125 378.039062 Z M 549.105469 228.371094 Z M 269.847656 555.855469 Z M 269.847656 555.855469 " fill-opacity="1" fill-rule="nonzero"/></g></svg>