<svg xmlns="http://www.w3.org/2000/svg" xmlns:xlink="http://www.w3.org/1999/xlink" width="1080" zoomAndPan="magnify" viewBox="0 0 810 809.999993" height="1080" preserveAspectRatio="xMidYMid meet" version="1.0"><defs><clipPath id="ae30bb2bee"><path d="M 309 704 L 438 704 L 438 749 L 309 749 Z M 309 704 " clip-rule="nonzero"/></clipPath><clipPath id="b826148ba4"><path d="M 436.558594 701.082031 L 439.277344 744.359375 L 310.96875 752.417969 L 308.25 709.144531 Z M 436.558594 701.082031 " clip-rule="nonzero"/></clipPath><clipPath id="e093d1152f"><path d="M 437.917969 722.71875 C 437.167969 710.769531 407.851562 702.882812 372.441406 705.109375 C 337.03125 707.335938 308.933594 718.824219 309.683594 730.777344 C 310.433594 742.726562 339.75 750.609375 375.160156 748.386719 C 410.570312 746.160156 438.667969 734.667969 437.917969 722.71875 Z M 437.917969 722.71875 " clip-rule="nonzero"/></clipPath><clipPath id="efe5136b58"><path d="M 562 60 L 697 60 L 697 216 L 562 216 Z M 562 60 " clip-rule="nonzero"/></clipPath><clipPath id="5cd44bd555"><path d="M 723.960938 99.78125 L 630.085938 240.515625 L 534.269531 176.597656 L 628.144531 35.867188 Z M 723.960938 99.78125 " clip-rule="nonzero"/></clipPath><clipPath id="8b8cd8bdef"><path d="M 677.097656 170.035156 C 702.980469 131.234375 702.511719 85.472656 676.054688 67.824219 C 649.59375 50.175781 607.164062 67.320312 581.28125 106.121094 C 555.398438 144.921875 555.867188 190.683594 582.328125 208.332031 C 608.785156 225.984375 651.21875 208.835938 677.097656 170.035156 Z M 677.097656 170.035156 " clip-rule="nonzero"/></clipPath><clipPath id="64b3f059da"><path d="M 52.988281 132.292969 L 755.046875 132.292969 L 755.046875 647.285156 L 52.988281 647.285156 Z M 52.988281 132.292969 " clip-rule="nonzero"/></clipPath><clipPath id="1ebadde42b"><path d="M 307 639 L 503 639 L 503 763 L 307 763 Z M 307 639 " clip-rule="nonzero"/></clipPath><clipPath id="e62019254c"><path d="M 516.617188 670.203125 L 486.957031 782.898438 L 293.703125 732.039062 L 323.363281 619.34375 Z M 516.617188 670.203125 " clip-rule="nonzero"/></clipPath><clipPath id="7bd7c7f3a6"><path d="M 501.347656 726.4375 C 509.535156 695.316406 473.039062 658.734375 419.828125 644.730469 C 366.617188 630.726562 316.839844 644.601562 308.652344 675.722656 C 300.460938 706.839844 336.957031 743.421875 390.167969 757.425781 C 443.378906 771.429688 493.15625 757.554688 501.347656 726.4375 Z M 501.347656 726.4375 " clip-rule="nonzero"/></clipPath><clipPath id="21b07fc378"><path d="M 36 119 L 773.914062 119 L 773.914062 672 L 36 672 Z M 36 119 " clip-rule="nonzero"/></clipPath><clipPath id="5ad76a25ac"><path d="M 36 579 L 773.914062 579 L 773.914062 610 L 36 610 Z M 36 579 " clip-rule="nonzero"/></clipPath></defs><g clip-path="url(#ae30bb2bee)"><g clip-path="url(#b826148ba4)"><g clip-path="url(#e093d1152f)"><path fill="#433d2f" d="M 436.558594 701.082031 L 439.277344 744.359375 L 310.96875 752.417969 L 308.25 709.144531 Z M 436.558594 701.082031 " fill-opacity="1" fill-rule="nonzero"/></g></g></g><g clip-path="url(#efe5136b58)"><g clip-path="url(#5cd44bd555)"><g clip-path="url(#8b8cd8bdef)"><path fill="#433d2f" d="M 723.960938 99.78125 L 630.335938 240.140625 L 534.519531 176.226562 L 628.144531 35.867188 Z M 723.960938 99.78125 " fill-opacity="1" fill-rule="nonzero"/></g></g></g><g clip-path="url(#64b3f059da)"><path fill="#433d2f" d="M 52.988281 132.292969 L 755.070312 132.292969 L 755.070312 647.285156 L 52.988281 647.285156 Z M 52.988281 132.292969 " fill-opacity="1" fill-rule="nonzero"/></g><g clip-path="url(#1ebadde42b)"><g clip-path="url(#e62019254c)"><g clip-path="url(#7bd7c7f3a6)"><path fill="#433d2f" d="M 516.175781 670.089844 L 486.515625 782.78125 L 293.703125 732.039062 L 323.363281 619.34375 Z M 516.175781 670.089844 " fill-opacity="1" fill-rule="nonzero"/></g></g></g><g clip-path="url(#21b07fc378)"><path fill="#fadd6e" d="M 742.386719 640.648438 L 67.609375 640.648438 L 67.609375 149.902344 L 461.148438 149.902344 C 469.617188 149.902344 476.484375 143.03125 476.484375 134.566406 C 476.484375 126.101562 469.617188 119.230469 461.148438 119.230469 L 52.273438 119.230469 C 43.808594 119.230469 36.9375 126.101562 36.9375 134.566406 L 36.9375 655.984375 C 36.9375 664.449219 43.808594 671.320312 52.273438 671.320312 L 757.722656 671.320312 C 766.1875 671.320312 773.058594 664.449219 773.058594 655.984375 L 773.058594 134.566406 C 773.058594 126.101562 766.1875 119.230469 757.722656 119.230469 C 749.253906 119.230469 742.386719 126.101562 742.386719 134.566406 Z M 742.386719 640.648438 " fill-opacity="1" fill-rule="nonzero"/></g><g clip-path="url(#5ad76a25ac)"><path fill="#fadd6e" d="M 52.273438 609.976562 L 757.722656 609.976562 C 766.1875 609.976562 773.058594 603.109375 773.058594 594.640625 C 773.058594 586.175781 766.1875 579.304688 757.722656 579.304688 L 52.273438 579.304688 C 43.808594 579.304688 36.9375 586.175781 36.9375 594.640625 C 36.9375 603.109375 43.808594 609.976562 52.273438 609.976562 Z M 52.273438 609.976562 " fill-opacity="1" fill-rule="nonzero"/></g><path fill="#fadd6e" d="M 266.976562 763.335938 L 543.019531 763.335938 C 551.488281 763.335938 558.355469 756.464844 558.355469 748 C 558.355469 739.53125 551.488281 732.664062 543.019531 732.664062 L 266.976562 732.664062 C 258.507812 732.664062 251.640625 739.53125 251.640625 748 C 251.640625 756.464844 258.507812 763.335938 266.976562 763.335938 Z M 266.976562 763.335938 " fill-opacity="1" fill-rule="nonzero"/><path fill="#fadd6e" d="M 312.183594 752.871094 L 342.855469 660.855469 C 345.570312 652.789062 341.179688 644.082031 333.191406 641.445312 C 325.125 638.730469 316.417969 643.125 313.78125 651.113281 L 283.109375 743.125 C 280.394531 751.195312 284.789062 759.898438 292.773438 762.535156 C 300.84375 765.25 309.546875 760.859375 312.183594 752.871094 Z M 312.183594 752.871094 " fill-opacity="1" fill-rule="nonzero"/><path fill="#fadd6e" d="M 497.8125 752.871094 L 467.140625 660.855469 C 464.425781 652.789062 468.816406 644.082031 476.804688 641.445312 C 484.871094 638.730469 493.578125 643.125 496.214844 651.113281 L 526.886719 743.125 C 529.601562 751.195312 525.207031 759.898438 517.222656 762.535156 C 509.152344 765.25 500.449219 760.859375 497.8125 752.871094 Z M 497.8125 752.871094 " fill-opacity="1" fill-rule="nonzero"/><path fill="#fadd6e" d="M 692.703125 164.839844 L 378.878906 440.402344 C 375.921875 442.960938 361.945312 423.230469 346.371094 407.894531 C 329.4375 391.203125 311.066406 378.582031 313.863281 375.386719 L 589.425781 61.5625 C 617.863281 29.53125 665.707031 28.09375 695.898438 58.367188 C 726.25 88.640625 724.734375 136.402344 692.703125 164.839844 Z M 674.253906 80.011719 C 656.441406 62.28125 629.125 63.078125 612.429688 81.847656 L 346.371094 384.8125 L 369.453125 407.894531 L 672.335938 141.914062 C 691.1875 125.140625 692.066406 97.824219 674.253906 80.011719 Z M 674.253906 80.011719 " fill-opacity="1" fill-rule="nonzero"/><path fill="#fadd6e" d="M 182.230469 515.007812 C 173.042969 507.578125 175.359375 492.960938 186.382812 488.726562 C 206.113281 481.21875 216.414062 467.242188 230.3125 435.132812 C 242.773438 406.378906 246.207031 399.667969 255.953125 389.84375 C 285.90625 359.890625 334.46875 359.890625 364.421875 389.84375 C 394.375 419.796875 394.375 468.359375 364.421875 498.3125 C 324.085938 538.570312 234.785156 557.179688 182.230469 515.007812 Z M 342.695312 476.585938 C 360.667969 458.617188 360.667969 429.542969 342.695312 411.570312 C 324.722656 393.597656 295.648438 393.597656 277.679688 411.570312 C 271.925781 417.320312 268.890625 423.152344 258.507812 447.273438 C 247.246094 473.3125 237.101562 490.644531 222.804688 502.707031 C 262.582031 516.683594 317.375 501.988281 342.695312 476.585938 Z M 342.695312 476.585938 " fill-opacity="1" fill-rule="nonzero"/><path fill="#fadd6e" d="M 377.679688 332.253906 L 421.929688 376.265625 C 427.921875 382.253906 437.585938 382.253906 443.578125 376.265625 C 449.566406 370.273438 449.566406 360.53125 443.578125 354.539062 L 399.328125 310.527344 C 393.335938 304.539062 383.589844 304.617188 377.601562 310.609375 C 371.609375 316.597656 371.691406 326.265625 377.679688 332.253906 Z M 377.679688 332.253906 " fill-opacity="1" fill-rule="nonzero"/></svg>