<svg xmlns="http://www.w3.org/2000/svg" xmlns:xlink="http://www.w3.org/1999/xlink" width="1080" zoomAndPan="magnify" viewBox="0 0 810 809.999993" height="1080" preserveAspectRatio="xMidYMid meet" version="1.0"><defs><clipPath id="ee8ba89530"><path d="M 606 340 L 745 340 L 745 407 L 606 407 Z M 606 340 " clip-rule="nonzero"/></clipPath><clipPath id="63d967eeb2"><path d="M 742.386719 336.320312 L 746.476562 401.433594 L 608.363281 410.113281 L 604.273438 345 Z M 742.386719 336.320312 " clip-rule="nonzero"/></clipPath><clipPath id="e201367ed8"><path d="M 744.429688 368.878906 C 743.300781 350.898438 711.46875 338.265625 673.332031 340.660156 C 635.191406 343.054688 605.191406 359.574219 606.320312 377.554688 C 607.449219 395.535156 639.285156 408.171875 677.421875 405.773438 C 715.558594 403.378906 745.5625 386.859375 744.429688 368.878906 Z M 744.429688 368.878906 " clip-rule="nonzero"/></clipPath><clipPath id="f70fc4b5bc"><path d="M 92.097656 88.1875 L 652.277344 88.1875 L 652.277344 707.460938 L 92.097656 707.460938 Z M 92.097656 88.1875 " clip-rule="nonzero"/></clipPath><clipPath id="38a9443e33"><path d="M 623 328 L 738 328 L 738 464 L 623 464 Z M 623 328 " clip-rule="nonzero"/></clipPath><clipPath id="df706795dc"><path d="M 705.136719 311.523438 L 756.578125 351.648438 L 655.636719 481.0625 L 604.195312 440.9375 Z M 705.136719 311.523438 " clip-rule="nonzero"/></clipPath><clipPath id="333d09019d"><path d="M 730.859375 331.585938 C 716.652344 320.503906 682.558594 340.46875 654.707031 376.175781 C 626.855469 411.882812 615.792969 449.8125 630 460.890625 C 644.207031 471.972656 678.300781 452.007812 706.152344 416.300781 C 734.003906 380.59375 745.0625 342.664062 730.859375 331.585938 Z M 730.859375 331.585938 " clip-rule="nonzero"/></clipPath><clipPath id="274bbc9366"><path d="M 71 54.222656 L 793 54.222656 L 793 729 L 71 729 Z M 71 54.222656 " clip-rule="nonzero"/></clipPath></defs><g clip-path="url(#ee8ba89530)"><g clip-path="url(#63d967eeb2)"><g clip-path="url(#e201367ed8)"><path fill="#433d2f" d="M 742.386719 336.320312 L 746.476562 401.433594 L 608.363281 410.113281 L 604.273438 345 Z M 742.386719 336.320312 " fill-opacity="1" fill-rule="nonzero"/></g></g></g><g clip-path="url(#f70fc4b5bc)"><path fill="#433d2f" d="M 92.097656 88.1875 L 652.277344 88.1875 L 652.277344 707.453125 L 92.097656 707.453125 Z M 92.097656 88.1875 " fill-opacity="1" fill-rule="nonzero"/></g><g clip-path="url(#38a9443e33)"><g clip-path="url(#df706795dc)"><g clip-path="url(#333d09019d)"><path fill="#433d2f" d="M 705.136719 311.523438 L 756.578125 351.648438 L 655.796875 480.863281 L 604.351562 440.734375 Z M 705.136719 311.523438 " fill-opacity="1" fill-rule="nonzero"/></g></g></g><g clip-path="url(#274bbc9366)"><path fill="#fadd6e" d="M 781.890625 308.265625 L 753.84375 279.414062 C 747.429688 273.003906 738.617188 268.996094 729 268.996094 C 719.382812 268.996094 711.367188 273.003906 704.15625 279.414062 L 670.496094 313.074219 L 670.496094 106.3125 C 670.496094 77.460938 647.257812 54.222656 618.40625 54.222656 L 123.140625 54.222656 C 94.292969 55.023438 71.050781 78.261719 71.050781 106.3125 L 71.050781 676.90625 C 71.050781 705.757812 94.292969 729 123.140625 729 L 619.207031 729 C 648.058594 729 671.296875 705.757812 671.296875 676.90625 L 671.296875 468.542969 L 782.691406 357.148438 C 795.515625 343.527344 795.515625 321.886719 781.890625 308.265625 Z M 299.449219 118.332031 L 315.476562 118.332031 C 321.890625 118.332031 327.5 123.941406 327.5 130.355469 C 327.5 136.765625 321.890625 142.375 315.476562 142.375 L 299.449219 142.375 C 293.039062 142.375 287.429688 136.765625 287.429688 130.355469 C 287.429688 123.941406 293.039062 118.332031 299.449219 118.332031 Z M 228.925781 118.332031 L 244.953125 118.332031 C 251.367188 118.332031 256.976562 123.941406 256.976562 130.355469 C 256.976562 136.765625 251.367188 142.375 244.953125 142.375 L 228.925781 142.375 C 222.515625 142.375 216.90625 136.765625 216.90625 130.355469 C 216.90625 123.941406 222.515625 118.332031 228.925781 118.332031 Z M 158.402344 118.332031 L 174.429688 118.332031 C 180.84375 118.332031 186.453125 123.941406 186.453125 130.355469 C 186.453125 136.765625 180.84375 142.375 174.429688 142.375 L 158.402344 142.375 C 151.992188 142.375 146.382812 136.765625 146.382812 130.355469 C 146.382812 123.941406 151.992188 118.332031 158.402344 118.332031 Z M 646.457031 676.90625 C 646.457031 692.132812 633.632812 704.957031 618.40625 704.957031 L 123.140625 704.957031 C 107.914062 704.15625 95.09375 692.132812 95.09375 676.90625 L 95.09375 206.488281 L 646.457031 206.488281 L 646.457031 337.113281 L 456.523438 527.046875 C 454.921875 528.648438 454.121094 530.253906 453.316406 531.855469 L 420.460938 625.617188 C 418.859375 629.625 419.660156 635.234375 423.667969 638.441406 C 426.070312 640.84375 429.277344 641.648438 432.480469 641.648438 C 434.085938 641.648438 434.886719 641.648438 436.488281 640.84375 L 530.253906 607.988281 C 531.855469 607.1875 533.457031 606.386719 535.0625 604.78125 L 647.257812 492.585938 L 647.257812 676.90625 Z M 526.246094 579.136719 L 482.167969 535.863281 L 675.304688 342.726562 L 719.382812 386.800781 Z M 526.246094 579.136719 " fill-opacity="1" fill-rule="nonzero"/></g><path fill="#fadd6e" d="M 446.90625 293.039062 L 577.535156 293.039062 C 583.945312 293.039062 589.554688 287.429688 589.554688 281.015625 C 589.554688 274.605469 583.945312 268.996094 577.535156 268.996094 L 446.90625 268.996094 C 440.496094 268.996094 434.886719 274.605469 434.886719 281.015625 C 434.886719 287.429688 439.695312 293.039062 446.90625 293.039062 Z M 446.90625 293.039062 " fill-opacity="1" fill-rule="nonzero"/><path fill="#fadd6e" d="M 446.90625 380.390625 L 547.082031 380.390625 C 553.492188 380.390625 559.101562 374.78125 559.101562 368.371094 C 559.101562 361.957031 553.492188 356.347656 547.082031 356.347656 L 446.90625 356.347656 C 440.496094 356.347656 434.886719 361.957031 434.886719 368.371094 C 434.886719 374.78125 439.695312 380.390625 446.90625 380.390625 Z M 446.90625 380.390625 " fill-opacity="1" fill-rule="nonzero"/><path fill="#fadd6e" d="M 164.011719 467.742188 L 431.679688 467.742188 C 438.089844 467.742188 443.703125 462.132812 443.703125 455.722656 C 443.703125 449.3125 438.089844 443.703125 431.679688 443.703125 L 164.011719 443.703125 C 157.601562 443.703125 151.992188 449.3125 151.992188 455.722656 C 151.992188 462.132812 157.601562 467.742188 164.011719 467.742188 Z M 164.011719 467.742188 " fill-opacity="1" fill-rule="nonzero"/><path fill="#fadd6e" d="M 354.746094 617.605469 L 164.011719 617.605469 C 157.601562 617.605469 151.992188 623.214844 151.992188 629.625 C 151.992188 636.035156 157.601562 641.648438 164.011719 641.648438 L 354.746094 641.648438 C 361.15625 641.648438 366.765625 636.035156 366.765625 629.625 C 366.765625 623.214844 361.957031 617.605469 354.746094 617.605469 Z M 354.746094 617.605469 " fill-opacity="1" fill-rule="nonzero"/><path fill="#fadd6e" d="M 395.617188 530.253906 L 164.011719 530.253906 C 157.601562 530.253906 151.992188 535.863281 151.992188 542.273438 C 151.992188 548.683594 157.601562 554.292969 164.011719 554.292969 L 394.816406 554.292969 C 401.226562 554.292969 406.835938 548.683594 406.835938 542.273438 C 406.835938 535.863281 402.027344 530.253906 395.617188 530.253906 Z M 395.617188 530.253906 " fill-opacity="1" fill-rule="nonzero"/><path fill="#fadd6e" d="M 164.011719 380.390625 L 370.773438 380.390625 C 377.183594 380.390625 382.796875 374.78125 382.796875 368.371094 L 382.796875 281.015625 C 382.796875 274.605469 377.183594 268.996094 370.773438 268.996094 L 164.011719 268.996094 C 157.601562 268.996094 151.992188 274.605469 151.992188 281.015625 L 151.992188 368.371094 C 151.992188 374.78125 157.601562 380.390625 164.011719 380.390625 Z M 164.011719 380.390625 " fill-opacity="1" fill-rule="nonzero"/></svg>